<ttFont>
<head>
    <!-- Most of this table will be recalculated by the compiler -->
    <tableVersion value="1.0"/>
    <fontRevision value="1.0"/>
    <checkSumAdjustment value="0xd8aaf189"/>
    <magicNumber value="0x5f0f3cf5"/>
    <flags value="00000000 00000011"/>
    <unitsPerEm value="2048"/>
    <created value="Wed Apr  3 14:21:47 2024"/>
    <modified value="Wed Apr  3 14:21:47 2024"/>
    <xMin value="-342"/>
    <yMin value="-450"/>
    <xMax value="2091"/>
    <yMax value="1700"/>
    <macStyle value="00000000 00000000"/>
    <lowestRecPPEM value="3"/>
    <fontDirectionHint value="2"/>
    <indexToLocFormat value="0"/>
    <glyphDataFormat value="0"/>
  </head>
        <CharString name=".notdef">
          920 0 0 rmoveto
          0 0 0 1490 0 0 rrcurveto
          0 0 920 0 0 0 rrcurveto
          0 0 0 -1490 0 0 rrcurveto
          0 0 -920 0 0 0 rrcurveto
          106 1384 rmoveto
          0 0 0 -1278 0 0 rrcurveto
          0 0 707 0 0 0 rrcurveto
          0 0 0 1278 0 0 rrcurveto
          0 0 -707 0 0 0 rrcurveto
          endchar
        </CharString>
        <CharString name="A">
          1252 1212 169 rmoveto
          0 3 -2 2 -3 0 rrcurveto
          0 0 -94 0 0 0 rrcurveto
          0 0 -358 1142 0 0 rrcurveto
          0 0 45 0 0 0 rrcurveto
          3 0 2 2 0 3 rrcurveto
          0 0 0 164 0 0 rrcurveto
          0 3 -2 2 -3 0 rrcurveto
          0 0 -361 0 0 0 rrcurveto
          -3 0 -2 -2 0 -3 rrcurveto
          0 0 0 -164 0 0 rrcurveto
          0 -3 2 -2 3 0 rrcurveto
          0 0 45 0 0 0 rrcurveto
          0 0 -358 -1142 0 0 rrcurveto
          0 0 -81 0 0 0 rrcurveto
          -3 0 -2 -2 0 -3 rrcurveto
          0 0 0 -164 0 0 rrcurveto
          0 -3 2 -2 3 0 rrcurveto
          0 0 326 0 0 0 rrcurveto
          3 0 2 2 0 3 rrcurveto
          0 0 0 164 0 0 rrcurveto
          0 3 -2 2 -3 0 rrcurveto
          0 0 -82 0 0 0 rrcurveto
          0 0 89 282 0 0 rrcurveto
          0 0 473 0 0 0 rrcurveto
          0 0 89 -282 0 0 rrcurveto
          0 0 -68 0 0 0 rrcurveto
          -3 0 -2 -2 0 -3 rrcurveto
          0 0 0 -164 0 0 rrcurveto
          0 -3 2 -2 3 0 rrcurveto
          0 0 335 0 0 0 rrcurveto
          3 0 2 2 0 3 rrcurveto
          0 0 0 164 0 0 rrcurveto
          -415 461 rmoveto
          0 0 -365 0 0 0 rrcurveto
          0 0 182 581 0 0 rrcurveto
          0 0 183 -581 0 0 rrcurveto
          endchar
        </CharString>
        <CharString name="B">
          1052 1012 396 rmoveto
          0 93 -34 197 -146 97 rrcurveto
          74 79 34 107 0 89 rrcurveto
          0 122 -33 303 -329 7 rrcurveto
          0 0 0 0 0 0 rrcurveto
          0 0 -533 0 0 0 rrcurveto
          -3 0 -2 -2 0 -3 rrcurveto
          0 0 0 -162 0 0 rrcurveto
          0 -3 2 -2 3 0 rrcurveto
          0 0 105 0 0 0 rrcurveto
          0 0 0 -1146 0 0 rrcurveto
          0 0 -105 0 0 0 rrcurveto
          -3 0 -2 -2 0 -3 rrcurveto
          0 0 0 -162 0 0 rrcurveto
          0 -3 2 -2 3 0 rrcurveto
          0 0 583 0 0 0 rrcurveto
          310 0 74 230 0 166 rrcurveto
          -690 922 rmoveto
          0 0 193 0 50 0 rrcurveto
          167 0 64 -93 0 -167 rrcurveto
          0 -120 -88 -98 -142 0 rrcurveto
          0 0 -244 0 0 0 rrcurveto
          0 0 0 478 0 0 rrcurveto
          542 -922 rmoveto
          0 -123 -90 -101 -146 0 rrcurveto
          -50 0 -256 0 0 0 rrcurveto
          0 0 0 493 0 0 rrcurveto
          0 0 306 0 0 0 rrcurveto
          171 0 65 -97 0 -172 rrcurveto
          endchar
        </CharString>
        <CharString name="C">
          1062 847 1261 rmoveto
          0 -3 2 -2 3 0 rrcurveto
          0 0 165 0 0 0 rrcurveto
          3 0 2 2 0 3 rrcurveto
          0 0 0 146 0 0 rrcurveto
          0 46 -37 37 -46 0 rrcurveto
          0 0 -235 0 0 0 rrcurveto
          -214 0 -176 -90 -118 -170 rrcurveto
          -52 -75 -40 -89 -26 -101 rrcurveto
          -25 -95 -13 -104 0 -109 rrcurveto
          0 -226 55 -163 112 -109 rrcurveto
          110 -107 162 -52 225 0 rrcurveto
          0 0 235 0 0 0 rrcurveto
          46 0 37 37 0 46 rrcurveto
          0 0 0 141 0 0 rrcurveto
          0 3 -2 2 -3 0 rrcurveto
          0 0 -165 0 0 0 rrcurveto
          -3 0 -2 -2 0 -3 rrcurveto
          0 0 0 -52 0 0 rrcurveto
          0 0 -143 0 0 0 rrcurveto
          -354 0 -138 136 0 349 rrcurveto
          0 190 44 169 81 116 rrcurveto
          86 123 124 63 157 0 rrcurveto
          0 0 143 0 0 0 rrcurveto
          0 0 0 -57 0 0 rrcurveto
          endchar
        </CharString>
        <CharString name="D">
          1167 40 5 rmoveto
          0 -3 2 -2 3 0 rrcurveto
          0 0 418 0 0 0 rrcurveto
          225 0 162 52 110 107 rrcurveto
          112 109 55 163 0 226 rrcurveto
          0 109 -12 104 -25 95 rrcurveto
          -26 101 -41 89 -52 75 rrcurveto
          -118 170 -176 90 -214 0 rrcurveto
          0 0 -418 0 0 0 rrcurveto
          -3 0 -2 -2 0 -3 rrcurveto
          0 0 0 -162 0 0 rrcurveto
          0 -3 2 -2 3 0 rrcurveto
          0 0 103 0 0 0 rrcurveto
          0 0 0 -1146 0 0 rrcurveto
          0 0 -103 0 0 0 rrcurveto
          -3 0 -2 -2 0 -3 rrcurveto
          0 0 0 -162 0 0 rrcurveto
          280 1313 rmoveto
          0 0 0 0 0 0 rrcurveto
          0 0 143 0 0 0 rrcurveto
          157 0 124 -63 86 -123 rrcurveto
          81 -116 44 -169 0 -190 rrcurveto
          0 -349 -138 -136 -354 0 rrcurveto
          0 0 -143 0 0 0 rrcurveto
          0 0 0 1146 0 0 rrcurveto
          endchar
        </CharString>
        <CharString name="E">
          1001 787 1316 rmoveto
          0 0 0 -84 0 0 rrcurveto
          0 -3 2 -2 3 0 rrcurveto
          0 0 164 0 0 0 rrcurveto
          3 0 2 2 0 3 rrcurveto
          0 0 0 258 0 0 rrcurveto
          0 0 -916 0 0 0 rrcurveto
          -3 0 -2 -2 0 -3 rrcurveto
          0 0 0 -164 0 0 rrcurveto
          0 -3 2 -2 3 0 rrcurveto
          0 0 56 0 0 0 rrcurveto
          0 0 0 -1142 0 0 rrcurveto
          0 0 -56 0 0 0 rrcurveto
          -3 0 -2 -2 0 -3 rrcurveto
          0 0 0 -164 0 0 rrcurveto
          0 -3 2 -2 3 0 rrcurveto
          0 0 916 0 0 0 rrcurveto
          0 0 0 258 0 0 rrcurveto
          0 3 -2 2 -3 0 rrcurveto
          0 0 -164 0 0 0 rrcurveto
          -3 0 -2 -2 0 -3 rrcurveto
          0 0 0 -84 0 0 rrcurveto
          0 0 -513 0 0 0 rrcurveto
          0 0 0 491 0 0 rrcurveto
          0 0 309 0 0 0 rrcurveto
          3 0 2 2 0 3 rrcurveto
          0 0 0 165 0 0 rrcurveto
          0 3 -2 2 -3 0 rrcurveto
          0 0 -309 0 0 0 rrcurveto
          0 0 0 476 0 0 rrcurveto
          0 0 513 0 0 0 rrcurveto
          endchar
        </CharString>
        <CharString name="F">
          1003 103 174 rmoveto
          0 0 -58 0 0 0 rrcurveto
          -3 0 -2 -2 0 -3 rrcurveto
          0 0 0 -164 0 0 rrcurveto
          0 -3 2 -2 3 0 rrcurveto
          0 0 326 0 0 0 rrcurveto
          3 0 2 2 0 3 rrcurveto
          0 0 0 164 0 0 rrcurveto
          0 3 -2 2 -3 0 rrcurveto
          0 0 -95 0 0 0 rrcurveto
          0 0 0 491 0 0 rrcurveto
          0 0 324 0 0 0 rrcurveto
          3 0 2 2 0 3 rrcurveto
          0 0 0 165 0 0 rrcurveto
          0 3 -2 2 -3 0 rrcurveto
          0 0 -324 0 0 0 rrcurveto
          0 0 0 476 0 0 rrcurveto
          0 0 513 0 0 0 rrcurveto
          0 0 0 -84 0 0 rrcurveto
          0 -3 2 -2 3 0 rrcurveto
          0 0 164 0 0 0 rrcurveto
          3 0 2 2 0 3 rrcurveto
          0 0 0 258 0 0 rrcurveto
          0 0 -918 0 0 0 rrcurveto
          -3 0 -2 -2 0 -3 rrcurveto
          0 0 0 -164 0 0 rrcurveto
          0 -3 2 -2 3 0 rrcurveto
          0 0 58 0 0 0 rrcurveto
          0 0 0 -1142 0 0 rrcurveto
          endchar
        </CharString>
        <CharString name="G">
          1299 40 684 rmoveto
          0 -486 228 -218 382 0 rrcurveto
          180 0 148 43 106 105 rrcurveto
          0 0 0 -124 0 0 rrcurveto
          0 -3 2 -2 3 0 rrcurveto
          0 0 165 0 0 0 rrcurveto
          3 0 2 2 0 3 rrcurveto
          0 0 0 621 0 0 rrcurveto
          0 3 -2 2 -3 0 rrcurveto
          0 0 -540 0 0 0 rrcurveto
          -3 0 -2 -2 0 -3 rrcurveto
          0 0 0 -165 0 0 rrcurveto
          0 -3 2 -2 3 0 rrcurveto
          0 0 344 0 0 0 rrcurveto
          -41 -164 -106 -133 -261 0 rrcurveto
          -346 0 -86 276 0 250 rrcurveto
          0 313 77 335 355 0 rrcurveto
          209 0 113 -117 57 -161 rrcurveto
          0 0 173 41 0 0 rrcurveto
          -72 219 -155 196 -325 0 rrcurveto
          -533 0 -77 -556 0 -270 rrcurveto
          endchar
        </CharString>
        <CharString name="H">
          1221 40 5 rmoveto
          0 -3 2 -2 3 0 rrcurveto
          0 0 326 0 0 0 rrcurveto
          3 0 2 2 0 3 rrcurveto
          0 0 0 164 0 0 rrcurveto
          0 3 -2 2 -3 0 rrcurveto
          0 0 -79 0 0 0 rrcurveto
          0 0 0 491 0 0 rrcurveto
          0 0 637 0 0 0 rrcurveto
          0 0 0 -491 0 0 rrcurveto
          0 0 -79 0 0 0 rrcurveto
          -3 0 -2 -2 0 -3 rrcurveto
          0 0 0 -164 0 0 rrcurveto
          0 -3 2 -2 3 0 rrcurveto
          0 0 326 0 0 0 rrcurveto
          3 0 2 2 0 3 rrcurveto
          0 0 0 164 0 0 rrcurveto
          0 3 -2 2 -3 0 rrcurveto
          0 0 -74 0 0 0 rrcurveto
          0 0 0 1142 0 0 rrcurveto
          0 0 74 0 0 0 rrcurveto
          3 0 2 2 0 3 rrcurveto
          0 0 0 164 0 0 rrcurveto
          0 3 -2 2 -3 0 rrcurveto
          0 0 -326 0 0 0 rrcurveto
          -3 0 -2 -2 0 -3 rrcurveto
          0 0 0 -164 0 0 rrcurveto
          0 -3 2 -2 3 0 rrcurveto
          0 0 79 0 0 0 rrcurveto
          0 0 0 -476 0 0 rrcurveto
          0 0 -637 0 0 0 rrcurveto
          0 0 0 476 0 0 rrcurveto
          0 0 79 0 0 0 rrcurveto
          3 0 2 2 0 3 rrcurveto
          0 0 0 164 0 0 rrcurveto
          0 3 -2 2 -3 0 rrcurveto
          0 0 -326 0 0 0 rrcurveto
          -3 0 -2 -2 0 -3 rrcurveto
          0 0 0 -164 0 0 rrcurveto
          0 -3 2 -2 3 0 rrcurveto
          0 0 74 0 0 0 rrcurveto
          0 0 0 -1142 0 0 rrcurveto
          0 0 -74 0 0 0 rrcurveto
          -3 0 -2 -2 0 -3 rrcurveto
          0 0 0 -164 0 0 rrcurveto
          endchar
        </CharString>
        <CharString name="I">
          1096 40 0 rmoveto
          0 0 1016 0 0 0 rrcurveto
          0 0 0 231 0 0 rrcurveto
          0 3 -2 2 -3 0 rrcurveto
          0 0 -164 0 0 0 rrcurveto
          -3 0 -2 -2 0 -3 rrcurveto
          0 0 0 -57 0 0 rrcurveto
          0 0 -253 0 0 0 rrcurveto
          0 0 0 1142 0 0 rrcurveto
          0 0 253 0 0 0 rrcurveto
          0 0 0 -60 0 0 rrcurveto
          0 -3 2 -2 3 0 rrcurveto
          0 0 164 0 0 0 rrcurveto
          3 0 2 2 0 3 rrcurveto
          0 0 0 234 0 0 rrcurveto
          0 0 -1016 0 0 0 rrcurveto
          0 0 0 -234 0 0 rrcurveto
          0 -3 2 -2 3 0 rrcurveto
          0 0 164 0 0 0 rrcurveto
          3 0 2 2 0 3 rrcurveto
          0 0 0 60 0 0 rrcurveto
          0 0 241 0 0 0 rrcurveto
          0 0 0 -1142 0 0 rrcurveto
          0 0 -241 0 0 0 rrcurveto
          0 0 0 57 0 0 rrcurveto
          0 3 -2 2 -3 0 rrcurveto
          0 0 -164 0 0 0 rrcurveto
          -3 0 -2 -2 0 -3 rrcurveto
          0 0 0 -231 0 0 rrcurveto
          endchar
        </CharString>
        <CharString name="INTERROBANG">
          836 329 177 rmoveto
          -55 0 -45 -50 0 -62 rrcurveto
          0 -76 70 -9 30 0 rrcurveto
          30 0 70 9 0 76 rrcurveto
          0 62 -45 50 -55 0 rrcurveto
          2 1331 rmoveto
          0 0 0 0 0 0 rrcurveto
          -109 0 -101 -38 -79 -64 rrcurveto
          -2 -2 -1 -4 2 -2 rrcurveto
          0 0 101 -100 0 0 rrcurveto
          2 -2 3 0 2 2 rrcurveto
          50 45 63 26 69 0 rrcurveto
          163 0 133 -149 0 -183 rrcurveto
          0 -183 -137 -51 -99 -12 rrcurveto
          0 0 -87 0 -41 0 rrcurveto
          -11 0 -9 -10 0 -11 rrcurveto
          0 0 3 -73 0 0 rrcurveto
          0 0 0 0 0 0 rrcurveto
          0 0 0 -11 0 0 rrcurveto
          0 0 0 -2 0 -2 rrcurveto
          0 0 8 -400 0 0 rrcurveto
          0 -12 10 -10 12 0 rrcurveto
          0 0 105 0 0 0 rrcurveto
          12 0 11 10 0 12 rrcurveto
          0 0 6 370 0 0 rrcurveto
          95 10 82 30 64 47 rrcurveto
          95 70 50 103 0 127 rrcurveto
          0 259 -209 210 -256 0 rrcurveto
          51 -14 rmoveto
          0 0 0 0 0 0 rrcurveto
          0 0 -104 0 0 0 rrcurveto
          -28 0 -22 -21 0 -28 rrcurveto
          0 0 20 -1163 0 0 rrcurveto
          0 -12 11 -10 12 0 rrcurveto
          0 0 115 0 0 0 rrcurveto
          12 0 10 10 0 12 rrcurveto
          0 0 20 1163 0 0 rrcurveto
          0 28 -18 21 -28 0 rrcurveto
          endchar
        </CharString>
        <CharString name="J">
          1009 969 1485 rmoveto
          0 3 -2 2 -3 0 rrcurveto
          0 0 -748 0 0 0 rrcurveto
          -3 0 -2 -2 0 -3 rrcurveto
          0 0 0 -164 0 0 rrcurveto
          0 -3 2 -2 3 0 rrcurveto
          0 0 531 0 0 0 rrcurveto
          0 0 0 -606 0 0 rrcurveto
          0 0 0 0 0 0 rrcurveto
          0 -9 1 -8 0 -9 rrcurveto
          0 -246 -60 -282 -374 -2 rrcurveto
          0 0 0 0 0 0 rrcurveto
          0 0 -100 0 0 0 rrcurveto
          0 0 0 79 0 0 rrcurveto
          0 3 -2 2 -3 0 rrcurveto
          0 0 -164 0 0 0 rrcurveto
          -3 0 -2 -2 0 -3 rrcurveto
          0 0 0 -170 0 0 rrcurveto
          0 -46 37 -37 46 0 rrcurveto
          0 0 191 0 0 0 rrcurveto
          0 0 0 0 0 0 rrcurveto
          367 1 239 185 0 518 rrcurveto
          0 9 0 8 0 9 rrcurveto
          0 0 0 0 0 0 rrcurveto
          0 0 0 606 0 0 rrcurveto
          0 0 44 0 0 0 rrcurveto
          3 0 2 2 0 3 rrcurveto
          0 0 0 164 0 0 rrcurveto
          endchar
        </CharString>
        <CharString name="K">
          1100 371 0 rmoveto
          3 0 2 2 0 3 rrcurveto
          0 0 0 164 0 0 rrcurveto
          0 3 -2 2 -3 0 rrcurveto
          0 0 -79 0 0 0 rrcurveto
          0 0 0 491 0 0 rrcurveto
          0 0 69 0 0 0 rrcurveto
          0 0 417 -491 0 0 rrcurveto
          0 0 -49 0 0 0 rrcurveto
          -3 0 -2 -2 0 -3 rrcurveto
          0 0 0 -164 0 0 rrcurveto
          0 -3 2 -2 3 0 rrcurveto
          0 0 326 0 0 0 rrcurveto
          3 0 2 2 0 3 rrcurveto
          0 0 0 164 0 0 rrcurveto
          0 3 -2 2 -3 0 rrcurveto
          0 0 -51 0 0 0 rrcurveto
          0 0 -529 622 0 0 rrcurveto
          0 0 416 520 0 0 rrcurveto
          0 0 94 0 0 0 rrcurveto
          3 0 2 2 0 3 rrcurveto
          0 0 0 164 0 0 rrcurveto
          0 3 -2 2 -3 0 rrcurveto
          0 0 -326 0 0 0 rrcurveto
          -3 0 -2 -2 0 -3 rrcurveto
          0 0 0 -164 0 0 rrcurveto
          0 -3 2 -2 3 0 rrcurveto
          0 0 55 0 0 0 rrcurveto
          0 0 -394 -476 0 0 rrcurveto
          0 0 -28 0 0 0 rrcurveto
          0 0 0 476 0 0 rrcurveto
          0 0 79 0 0 0 rrcurveto
          3 0 2 2 0 3 rrcurveto
          0 0 0 164 0 0 rrcurveto
          0 3 -2 2 -3 0 rrcurveto
          0 0 -326 0 0 0 rrcurveto
          -3 0 -2 -2 0 -3 rrcurveto
          0 0 0 -164 0 0 rrcurveto
          0 -3 2 -2 3 0 rrcurveto
          0 0 74 0 0 0 rrcurveto
          0 0 0 -1142 0 0 rrcurveto
          0 0 -74 0 0 0 rrcurveto
          -3 0 -2 -2 0 -3 rrcurveto
          0 0 0 -164 0 0 rrcurveto
          0 -3 2 -2 3 0 rrcurveto
          0 0 326 0 0 0 rrcurveto
          endchar
        </CharString>
        <CharString name="L">
          1003 963 0 rmoveto
          0 0 0 256 0 0 rrcurveto
          0 3 -2 2 -3 0 rrcurveto
          0 0 -164 0 0 0 rrcurveto
          -3 0 -2 -2 0 -3 rrcurveto
          0 0 0 -82 0 0 rrcurveto
          0 0 -513 0 0 0 rrcurveto
          0 0 0 1142 0 0 rrcurveto
          0 0 95 0 0 0 rrcurveto
          3 0 2 2 0 3 rrcurveto
          0 0 0 164 0 0 rrcurveto
          0 3 -2 2 -3 0 rrcurveto
          0 0 -326 0 0 0 rrcurveto
          -3 0 -2 -2 0 -3 rrcurveto
          0 0 0 -164 0 0 rrcurveto
          0 -3 2 -2 3 0 rrcurveto
          0 0 58 0 0 0 rrcurveto
          0 0 0 -1142 0 0 rrcurveto
          0 0 -58 0 0 0 rrcurveto
          -3 0 -2 -2 0 -3 rrcurveto
          0 0 0 -164 0 0 rrcurveto
          0 -3 2 -2 3 0 rrcurveto
          0 0 918 0 0 0 rrcurveto
          endchar
        </CharString>
        <CharString name="M">
          1336 1296 1484 rmoveto
          0 3 -2 2 -3 0 rrcurveto
          0 0 -243 0 0 0 rrcurveto
          0 0 0 0 0 0 rrcurveto
          0 0 -1 1 0 0 rrcurveto
          0 0 -1 -1 0 0 rrcurveto
          -2 -1 -1 -2 0 -2 rrcurveto
          0 0 0 -1 0 0 rrcurveto
          0 0 -361 -672 0 0 rrcurveto
          0 0 -389 672 0 0 rrcurveto
          0 0 0 1 0 0 rrcurveto
          0 2 -1 2 -2 1 rrcurveto
          0 0 -1 1 0 0 rrcurveto
          0 0 -1 -1 0 0 rrcurveto
          0 0 0 0 0 0 rrcurveto
          0 0 -243 0 0 0 rrcurveto
          -3 0 -2 -2 0 -3 rrcurveto
          0 0 0 -164 0 0 rrcurveto
          0 -3 2 -2 3 0 rrcurveto
          0 0 75 0 0 0 rrcurveto
          0 0 0 -1141 0 0 rrcurveto
          0 0 -74 0 0 0 rrcurveto
          -3 0 -2 -2 0 -3 rrcurveto
          0 0 0 -164 0 0 rrcurveto
          0 -3 2 -2 3 0 rrcurveto
          0 0 326 0 0 0 rrcurveto
          3 0 2 2 0 3 rrcurveto
          0 0 0 164 0 0 rrcurveto
          0 3 -2 2 -3 0 rrcurveto
          0 0 -79 0 0 0 rrcurveto
          0 0 0 936 0 0 rrcurveto
          0 0 385 -659 0 0 rrcurveto
          0 0 365 652 0 0 rrcurveto
          0 0 0 -929 0 0 rrcurveto
          0 0 -79 0 0 0 rrcurveto
          -3 0 -2 -2 0 -3 rrcurveto
          0 0 0 -164 0 0 rrcurveto
          0 -3 2 -2 3 0 rrcurveto
          0 0 326 0 0 0 rrcurveto
          3 0 2 2 0 3 rrcurveto
          0 0 0 164 0 0 rrcurveto
          0 3 -2 2 -3 0 rrcurveto
          0 0 -74 0 0 0 rrcurveto
          0 0 0 1141 0 0 rrcurveto
          0 0 75 0 0 0 rrcurveto
          3 0 2 2 0 3 rrcurveto
          0 0 0 164 0 0 rrcurveto
          endchar
        </CharString>
        <CharString name="N">
          1221 292 1114 rmoveto
          0 0 637 -1114 0 0 rrcurveto
          0 0 173 0 0 0 rrcurveto
          0 0 0 1315 0 0 rrcurveto
          0 0 74 0 0 0 rrcurveto
          3 0 2 2 0 3 rrcurveto
          0 0 0 164 0 0 rrcurveto
          0 3 -2 2 -3 0 rrcurveto
          0 0 -326 0 0 0 rrcurveto
          -3 0 -2 -2 0 -3 rrcurveto
          0 0 0 -164 0 0 rrcurveto
          0 -3 2 -2 3 0 rrcurveto
          0 0 79 0 0 0 rrcurveto
          0 0 0 -949 0 0 rrcurveto
          0 0 -632 1115 0 0 rrcurveto
          0 0 0 3 0 0 rrcurveto
          0 3 -2 2 -2 0 rrcurveto
          0 0 -1 1 0 0 rrcurveto
          0 0 -1 -1 0 0 rrcurveto
          0 0 -246 0 0 0 rrcurveto
          -3 0 -2 -2 0 -3 rrcurveto
          0 0 0 -164 0 0 rrcurveto
          0 -3 2 -2 3 0 rrcurveto
          0 0 74 0 0 0 rrcurveto
          0 0 0 -1141 0 0 rrcurveto
          0 0 -74 0 0 0 rrcurveto
          -3 0 -2 -2 0 -3 rrcurveto
          0 0 0 -164 0 0 rrcurveto
          0 -3 2 -2 3 0 rrcurveto
          0 0 326 0 0 0 rrcurveto
          3 0 2 2 0 3 rrcurveto
          0 0 0 164 0 0 rrcurveto
          0 3 -2 2 -3 0 rrcurveto
          0 0 -79 0 0 0 rrcurveto
          0 0 0 940 0 0 rrcurveto
          endchar
        </CharString>
        <CharString name="O">
          1300 1260 684 rmoveto
          0 295 -73 531 -537 0 rrcurveto
          -533 0 -77 -556 0 -270 rrcurveto
          0 -486 228 -218 382 0 rrcurveto
          369 0 241 184 0 520 rrcurveto
          -179 0 rmoveto
          0 -247 -53 -279 -378 0 rrcurveto
          -346 0 -86 276 0 250 rrcurveto
          0 313 77 335 355 0 rrcurveto
          353 0 78 -335 0 -313 rrcurveto
          endchar
        </CharString>
        <CharString name="P">
          994 329 666 rmoveto
          0 0 244 0 0 0 rrcurveto
          261 0 120 231 0 162 rrcurveto
          0 122 -40 302 -329 7 rrcurveto
          0 0 0 0 0 0 rrcurveto
          0 0 -540 0 0 0 rrcurveto
          -3 0 -2 -2 0 -3 rrcurveto
          0 0 0 -164 0 0 rrcurveto
          0 -3 2 -2 3 0 rrcurveto
          0 0 112 0 0 0 rrcurveto
          0 0 0 -1142 0 0 rrcurveto
          0 0 -112 0 0 0 rrcurveto
          -3 0 -2 -2 0 -3 rrcurveto
          0 0 0 -164 0 0 rrcurveto
          0 -3 2 -2 3 0 rrcurveto
          0 0 377 0 0 0 rrcurveto
          0 0 3 1 0 0 rrcurveto
          0 0 1 0 0 0 rrcurveto
          0 0 0 1 0 0 rrcurveto
          0 0 1 3 0 0 rrcurveto
          0 0 0 164 0 0 rrcurveto
          0 0 -1 3 0 0 rrcurveto
          0 0 0 1 0 0 rrcurveto
          0 0 -1 0 0 0 rrcurveto
          0 0 -3 1 0 0 rrcurveto
          0 0 -93 0 0 0 rrcurveto
          0 0 0 492 0 0 rrcurveto
          243 652 rmoveto
          0 0 0 0 0 0 rrcurveto
          167 0 64 -92 0 -167 rrcurveto
          0 -120 -88 -98 -142 0 rrcurveto
          0 0 -244 -1 0 0 rrcurveto
          0 0 0 478 0 0 rrcurveto
          0 0 243 0 0 0 rrcurveto
          endchar
        </CharString>
        <CharString name="Q">
          1318 1278 7 rmoveto
          0 0 -159 160 0 0 rrcurveto
          90 112 51 167 0 238 rrcurveto
          0 295 -73 531 -537 0 rrcurveto
          -533 0 -77 -556 0 -270 rrcurveto
          0 -486 228 -218 382 0 rrcurveto
          129 0 113 22 93 52 rrcurveto
          0 0 170 -170 0 0 rrcurveto
          2 -2 3 0 2 2 rrcurveto
          0 0 116 116 0 0 rrcurveto
          2 2 0 3 -2 2 rrcurveto
          -431 185 rmoveto
          -53 -22 -65 -12 -79 0 rrcurveto
          -346 0 -86 276 0 250 rrcurveto
          0 313 77 335 355 0 rrcurveto
          353 0 78 -335 0 -313 rrcurveto
          0 -136 -16 -146 -78 -103 rrcurveto
          0 0 -139 138 0 0 rrcurveto
          -2 2 -3 0 -2 -2 rrcurveto
          0 0 -116 -115 0 0 rrcurveto
          -2 -2 0 -4 2 -2 rrcurveto
          0 0 122 -122 0 0 rrcurveto
          endchar
        </CharString>
        <CharString name="R">
          1103 1063 170 rmoveto
          0 3 -2 2 -3 0 rrcurveto
          0 0 -128 0 0 0 rrcurveto
          0 0 -288 499 0 0 rrcurveto
          205 42 95 199 0 144 rrcurveto
          0 122 -40 302 -329 7 rrcurveto
          0 0 0 0 0 0 rrcurveto
          0 0 -529 0 0 0 rrcurveto
          0 0 0 0 0 0 rrcurveto
          -2 0 -2 -3 0 -2 rrcurveto
          0 0 0 -164 0 0 rrcurveto
          0 -3 2 -2 3 0 rrcurveto
          0 0 100 0 0 0 rrcurveto
          0 0 0 -1142 0 0 rrcurveto
          0 0 -100 0 0 0 rrcurveto
          -3 0 -2 -2 0 -3 rrcurveto
          0 0 0 -164 0 0 rrcurveto
          0 -3 2 -2 3 0 rrcurveto
          0 0 377 0 0 0 rrcurveto
          3 0 2 2 0 3 rrcurveto
          0 0 0 164 0 0 rrcurveto
          0 3 -2 2 -3 0 rrcurveto
          0 0 -105 0 0 0 rrcurveto
          0 0 0 492 0 0 rrcurveto
          0 0 128 0 0 0 rrcurveto
          0 0 361 -665 0 0 rrcurveto
          0 0 3 0 0 0 rrcurveto
          0 0 0 0 0 0 rrcurveto
          0 0 249 0 0 0 rrcurveto
          3 0 2 2 0 3 rrcurveto
          0 0 0 164 0 0 rrcurveto
          -746 1148 rmoveto
          0 0 0 0 0 0 rrcurveto
          0 0 243 0 0 0 rrcurveto
          167 0 64 -92 0 -167 rrcurveto
          0 -120 -88 -98 -142 0 rrcurveto
          0 0 -58 0 0 0 rrcurveto
          0 0 0 -1 0 0 rrcurveto
          0 0 -186 0 0 0 rrcurveto
          0 0 0 478 0 0 rrcurveto
          endchar
        </CharString>
        <CharString name="S">
          981 941 394 rmoveto
          0 123 -31 332 -420 0 rrcurveto
          0 0 0 1 0 0 rrcurveto
          -233 0 -29 138 0 66 rrcurveto
          0 147 68 115 194 0 rrcurveto
          63 0 71 0 60 0 rrcurveto
          0 0 0 -82 0 0 rrcurveto
          0 -3 2 -2 3 0 rrcurveto
          0 0 164 0 0 0 rrcurveto
          3 0 2 2 0 3 rrcurveto
          0 0 0 173 0 0 rrcurveto
          0 46 -37 37 -46 0 rrcurveto
          0 0 -285 0 0 0 rrcurveto
          -180 0 -256 -95 0 -341 rrcurveto
          0 -174 153 -204 279 0 rrcurveto
          255 0 26 -124 0 -158 rrcurveto
          0 -70 -5 -150 -276 0 rrcurveto
          0 0 -272 0 0 0 rrcurveto
          0 0 0 80 0 0 rrcurveto
          0 3 -2 2 -3 0 rrcurveto
          0 0 -164 0 0 0 rrcurveto
          -3 0 -2 -2 0 -3 rrcurveto
          0 0 0 -171 0 0 rrcurveto
          0 -45 36 -37 45 -1 rrcurveto
          0 0 0 0 0 0 rrcurveto
          0 0 365 0 0 0 rrcurveto
          470 0 -15 331 0 63 rrcurveto
          endchar
        </CharString>
        <CharString name="T">
          1104 1063 1215 rmoveto
          0 0 1 275 0 0 rrcurveto
          0 0 -1024 0 0 0 rrcurveto
          0 0 0 -275 0 0 rrcurveto
          0 -3 2 -2 3 0 rrcurveto
          0 0 165 0 0 0 rrcurveto
          3 0 2 2 0 3 rrcurveto
          0 0 0 100 0 0 rrcurveto
          0 0 243 0 0 0 rrcurveto
          0 0 0 -1139 0 0 rrcurveto
          0 0 -99 0 0 0 rrcurveto
          -3 0 -2 -2 0 -3 rrcurveto
          0 0 0 -166 0 0 rrcurveto
          0 -3 2 -2 3 0 rrcurveto
          0 0 364 0 0 0 rrcurveto
          3 0 2 2 0 3 rrcurveto
          0 0 0 166 0 0 rrcurveto
          0 3 -2 2 -3 0 rrcurveto
          0 0 -89 0 0 0 rrcurveto
          0 0 0 1139 0 0 rrcurveto
          0 0 254 0 0 0 rrcurveto
          0 0 0 -100 0 0 rrcurveto
          0 -3 2 -2 3 0 rrcurveto
          0 0 165 0 0 0 rrcurveto
          3 0 2 2 0 3 rrcurveto
          endchar
        </CharString>
        <CharString name="U">
          1301 1261 1485 rmoveto
          0 3 -2 2 -3 0 rrcurveto
          0 0 -364 0 0 0 rrcurveto
          -3 0 -2 -2 0 -3 rrcurveto
          0 0 0 -166 0 0 rrcurveto
          0 -3 2 -2 3 0 rrcurveto
          0 0 92 0 0 0 rrcurveto
          0 0 0 -808 0 0 rrcurveto
          0 -127 -25 -88 -52 -54 rrcurveto
          -53 -55 -86 -27 -126 0 rrcurveto
          -124 0 -84 26 -49 54 rrcurveto
          -49 53 -24 89 0 129 rrcurveto
          0 0 0 808 0 0 rrcurveto
          0 0 97 0 0 0 rrcurveto
          3 0 2 2 0 3 rrcurveto
          0 0 0 166 0 0 rrcurveto
          0 3 -2 2 -3 0 rrcurveto
          0 0 -364 0 0 0 rrcurveto
          -3 0 -2 -2 0 -3 rrcurveto
          0 0 0 -166 0 0 rrcurveto
          0 -3 2 -2 3 0 rrcurveto
          0 0 93 0 0 0 rrcurveto
          0 0 0 -808 0 0 rrcurveto
          0 -174 38 -127 80 -87 rrcurveto
          84 -93 126 -45 176 0 rrcurveto
          86 0 72 11 64 21 rrcurveto
          67 23 57 34 45 47 rrcurveto
          84 89 42 127 0 174 rrcurveto
          0 0 0 808 0 0 rrcurveto
          0 0 97 0 0 0 rrcurveto
          3 0 2 2 0 3 rrcurveto
          0 0 0 166 0 0 rrcurveto
          endchar
        </CharString>
        <CharString name="V">
          1276 1236 1485 rmoveto
          0 3 -2 2 -3 0 rrcurveto
          0 0 -213 0 0 0 rrcurveto
          -2 0 -3 -2 0 -2 rrcurveto
          0 0 -363 -1091 0 0 rrcurveto
          0 0 -387 1091 0 0 rrcurveto
          0 2 -3 2 -2 0 rrcurveto
          0 0 -213 0 0 0 rrcurveto
          -3 0 -2 -2 0 -3 rrcurveto
          0 0 0 -164 0 0 rrcurveto
          0 -3 2 -2 3 0 rrcurveto
          0 0 86 0 0 0 rrcurveto
          0 0 466 -1316 0 0 rrcurveto
          0 0 108 0 0 0 rrcurveto
          0 0 436 1316 0 0 rrcurveto
          0 0 90 0 0 0 rrcurveto
          3 0 2 2 0 3 rrcurveto
          0 0 0 164 0 0 rrcurveto
          endchar
        </CharString>
        <CharString name="W">
          1549 1509 1485 rmoveto
          0 3 -2 2 -3 0 rrcurveto
          0 0 -213 0 0 0 rrcurveto
          -3 0 -2 -2 0 -3 rrcurveto
          0 0 -219 -1100 0 0 rrcurveto
          0 0 -264 512 0 0 rrcurveto
          0 0 -62 0 0 0 rrcurveto
          0 0 -257 -505 0 0 rrcurveto
          0 0 -221 1093 0 0 rrcurveto
          0 3 -2 2 -3 0 rrcurveto
          0 0 -213 0 0 0 rrcurveto
          -3 0 -2 -2 0 -3 rrcurveto
          0 0 0 -164 0 0 rrcurveto
          0 -3 2 -2 3 0 rrcurveto
          0 0 78 0 0 0 rrcurveto
          0 0 243 -1316 0 0 rrcurveto
          0 0 149 0 0 0 rrcurveto
          0 0 256 523 0 0 rrcurveto
          0 0 263 -523 0 0 rrcurveto
          0 0 149 0 0 0 rrcurveto
          0 0 245 1316 0 0 rrcurveto
          0 0 76 0 0 0 rrcurveto
          3 0 2 2 0 3 rrcurveto
          0 0 0 164 0 0 rrcurveto
          endchar
        </CharString>
        <CharString name="X">
          1180 1140 169 rmoveto
          0 3 -2 2 -3 0 rrcurveto
          0 0 -113 0 0 0 rrcurveto
          0 0 -320 585 0 0 rrcurveto
          0 0 308 557 0 0 rrcurveto
          0 0 105 0 0 0 rrcurveto
          3 0 2 2 0 3 rrcurveto
          0 0 0 164 0 0 rrcurveto
          0 3 -2 2 -3 0 rrcurveto
          0 0 -213 0 0 0 rrcurveto
          -2 0 -2 -2 0 0 rrcurveto
          0 0 -1 -1 0 0 rrcurveto
          0 0 -297 -542 0 0 rrcurveto
          0 0 -297 542 0 0 rrcurveto
          0 0 -1 1 0 0 rrcurveto
          0 0 -2 2 -2 0 rrcurveto
          0 0 -213 0 0 0 rrcurveto
          -3 0 -2 -2 0 -3 rrcurveto
          0 0 0 -164 0 0 rrcurveto
          0 -3 2 -2 3 0 rrcurveto
          0 0 105 0 0 0 rrcurveto
          0 0 298 -539 0 0 rrcurveto
          0 0 -331 -603 0 0 rrcurveto
          0 0 -112 0 0 0 rrcurveto
          -3 0 -2 -2 0 -3 rrcurveto
          0 0 0 -164 0 0 rrcurveto
          0 -3 2 -2 3 0 rrcurveto
          0 0 213 0 0 0 rrcurveto
          2 0 2 2 0 0 rrcurveto
          0 0 1 1 0 0 rrcurveto
          0 0 327 590 0 0 rrcurveto
          0 0 327 -590 0 0 rrcurveto
          0 0 1 -1 0 0 rrcurveto
          0 0 2 -2 2 0 rrcurveto
          0 0 213 0 0 0 rrcurveto
          3 0 2 2 0 3 rrcurveto
          0 0 0 164 0 0 rrcurveto
          endchar
        </CharString>
        <CharString name="Y">
          1276 1236 1485 rmoveto
          0 3 -2 2 -3 0 rrcurveto
          0 0 -213 0 0 0 rrcurveto
          -2 0 -2 -2 0 0 rrcurveto
          0 0 0 -1 0 0 rrcurveto
          0 0 -360 -596 0 0 rrcurveto
          0 0 -392 597 0 0 rrcurveto
          0 0 0 0 0 0 rrcurveto
          0 0 -2 2 -2 0 rrcurveto
          0 0 -213 0 0 0 rrcurveto
          -3 0 -2 -2 0 -3 rrcurveto
          0 0 0 -164 0 0 rrcurveto
          0 -3 2 -2 3 0 rrcurveto
          0 0 100 0 0 0 rrcurveto
          0 0 427 -659 0 0 rrcurveto
          0 0 0 -486 0 0 rrcurveto
          0 0 -79 0 0 0 rrcurveto
          -3 0 -2 -2 0 -3 rrcurveto
          0 0 0 -164 0 0 rrcurveto
          0 -3 2 -2 3 0 rrcurveto
          0 0 326 0 0 0 rrcurveto
          3 0 2 2 0 3 rrcurveto
          0 0 0 164 0 0 rrcurveto
          0 3 -2 2 -3 0 rrcurveto
          0 0 -74 0 0 0 rrcurveto
          0 0 0 516 0 0 rrcurveto
          0 0 379 629 0 0 rrcurveto
          0 0 107 0 0 0 rrcurveto
          3 0 2 2 0 3 rrcurveto
          0 0 0 164 0 0 rrcurveto
          endchar
        </CharString>
        <CharString name="Z">
          1146 1106 237 rmoveto
          0 3 -2 2 -3 0 rrcurveto
          0 0 -168 0 0 0 rrcurveto
          -3 0 -2 -2 0 -3 rrcurveto
          0 0 0 -62 0 0 rrcurveto
          0 0 -594 0 0 0 rrcurveto
          0 0 752 1285 0 0 rrcurveto
          0 0 0 30 0 0 rrcurveto
          0 0 -1000 0 0 0 rrcurveto
          -3 0 -2 -2 0 -3 rrcurveto
          0 0 0 -232 0 0 rrcurveto
          0 -3 2 -2 3 0 rrcurveto
          0 0 169 0 0 0 rrcurveto
          3 0 2 2 0 3 rrcurveto
          0 0 0 62 0 0 rrcurveto
          0 0 533 0 0 0 rrcurveto
          0 0 -752 -1285 0 0 rrcurveto
          0 0 -1 -30 0 0 rrcurveto
          0 0 1061 0 0 0 rrcurveto
          3 0 2 2 0 3 rrcurveto
          0 0 0 232 0 0 rrcurveto
          endchar
        </CharString>
        <CharString name="a">
          949 904 165 rmoveto
          0 0 0 0 0 0 rrcurveto
          0 0 -135 0 50 0 rrcurveto
          0 0 1 406 0 34 rrcurveto
          0 150 38 285 -502 0 rrcurveto
          -124 0 -132 -35 -33 -13 rrcurveto
          -17 -7 -2 -6 3 -14 rrcurveto
          0 0 33 -123 0 0 rrcurveto
          0 0 0 0 0 0 rrcurveto
          0 0 0 0 0 0 rrcurveto
          4 -17 8 -2 13 3 rrcurveto
          35 8 96 45 116 0 rrcurveto
          289 0 2 -52 0 -176 rrcurveto
          0 -6 0 -26 0 -30 rrcurveto
          -62 50 -80 32 -90 0 rrcurveto
          -218 0 -157 -159 0 -220 rrcurveto
          0 -108 85 -204 300 0 rrcurveto
          97 0 84 27 63 30 rrcurveto
          15 -22 25 -14 28 0 rrcurveto
          0 0 167 0 0 0 rrcurveto
          3 0 2 2 0 3 rrcurveto
          0 0 0 154 0 0 rrcurveto
          0 3 -2 2 -3 0 rrcurveto
          -250 175 rmoveto
          0 -69 0 -59 0 0 rrcurveto
          0 0 -61 -95 -168 0 rrcurveto
          -70 0 -152 -1 0 177 rrcurveto
          0 144 84 97 128 0 rrcurveto
          128 0 111 -76 0 -118 rrcurveto
          endchar
        </CharString>
        <CharString name="ampersand">
          1117 942 151 rmoveto
          0 0 0 0 0 0 rrcurveto
          56 72 38 99 3 129 rrcurveto
          0 0 0 0 0 0 rrcurveto
          0 0 0 2 0 0 rrcurveto
          0 5 0 4 0 5 rrcurveto
          0 0 0 0 0 0 rrcurveto
          0 0 0 20 0 0 rrcurveto
          0 3 -2 2 -3 0 rrcurveto
          0 0 -139 0 0 0 rrcurveto
          -3 0 -2 -2 0 -3 rrcurveto
          0 0 0 -22 0 0 rrcurveto
          0 -80 -20 -65 -31 -51 rrcurveto
          -123 144 -145 183 -104 169 rrcurveto
          9 4 10 3 10 4 rrcurveto
          0 0 0 0 0 0 rrcurveto
          302 72 13 172 0 104 rrcurveto
          0 211 -110 172 -210 0 rrcurveto
          -210 0 -100 -144 0 -259 rrcurveto
          0 -81 33 -98 52 -103 rrcurveto
          -148 -111 -78 -171 0 -123 rrcurveto
          0 -142 56 -116 106 -78 rrcurveto
          90 -66 125 -35 143 0 rrcurveto
          89 0 98 22 85 52 rrcurveto
          26 -28 18 -19 5 -5 rrcurveto
          0 0 3 -1 0 0 rrcurveto
          0 0 188 0 0 0 rrcurveto
          4 0 2 6 -3 3 rrcurveto
          -20 19 -49 51 -64 71 rrcurveto
          -612 961 rmoveto
          0 0 0 0 0 0 rrcurveto
          0 150 50 112 111 0 rrcurveto
          126 0 55 -102 0 -150 rrcurveto
          0 -184 -162 -2 -77 -28 rrcurveto
          0 0 0 0 0 0 rrcurveto
          -13 -4 -13 -4 -12 -5 rrcurveto
          -41 83 -24 74 0 60 rrcurveto
          230 -997 rmoveto
          -99 0 -272 48 0 252 rrcurveto
          0 131 47 84 100 67 rrcurveto
          119 -196 162 -201 117 -135 rrcurveto
          -57 -34 -63 -16 -54 0 rrcurveto
          endchar
        </CharString>
        <CharString name="asciicircum">
          830 505 1530 rmoveto
          0 0 -180 0 0 0 rrcurveto
          0 0 -284 -643 0 0 rrcurveto
          0 0 -1 -30 0 0 rrcurveto
          0 0 172 0 0 0 rrcurveto
          0 0 203 467 0 0 rrcurveto
          0 0 203 -467 0 0 rrcurveto
          0 0 172 0 0 0 rrcurveto
          0 0 -1 30 0 0 rrcurveto
          0 0 -284 643 0 0 rrcurveto
          endchar
        </CharString>
        <CharString name="asciitilde">
          1237 1177 811 rmoveto
          0 0 -268 -129 -116 0 rrcurveto
          -36 0 -52 16 -48 21 rrcurveto
          -71 42 -98 50 -48 0 rrcurveto
          -115 0 -265 -127 0 0 rrcurveto
          -10 -4 -10 -7 0 -11 rrcurveto
          0 0 0 -140 0 0 rrcurveto
          0 -11 9 -9 11 0 rrcurveto
          0 0 268 129 116 0 rrcurveto
          36 0 52 -17 48 -21 rrcurveto
          71 -42 98 -49 48 0 rrcurveto
          115 0 265 127 0 0 rrcurveto
          10 4 10 7 0 11 rrcurveto
          0 0 0 140 0 0 rrcurveto
          0 11 -9 9 -11 0 rrcurveto
          endchar
        </CharString>
        <CharString name="asterisk">
          860 299 1102 rmoveto
          0 0 0 0 0 0 rrcurveto
          0 0 6 -1 3 -3 rrcurveto
          0 0 2 -3 0 0 rrcurveto
          0 0 -1 0 0 0 rrcurveto
          0 0 1 -2 0 0 rrcurveto
          0 0 1 -2 0 0 rrcurveto
          0 0 0 0 0 0 rrcurveto
          0 0 0 -3 0 0 rrcurveto
          -1 -4 -4 -4 0 0 rrcurveto
          0 0 -151 -184 0 0 rrcurveto
          -13 -18 3 -24 16 -12 rrcurveto
          0 0 38 -28 0 0 rrcurveto
          0 0 39 -28 0 0 rrcurveto
          16 -12 24 6 13 18 rrcurveto
          0 0 127 200 0 0 rrcurveto
          0 0 3 5 3 2 rrcurveto
          0 0 4 1 0 0 rrcurveto
          0 0 0 0 0 0 rrcurveto
          0 0 2 0 0 0 rrcurveto
          0 0 2 0 0 0 rrcurveto
          0 0 0 0 0 0 rrcurveto
          0 0 4 -1 0 0 rrcurveto
          3 -2 3 -5 0 0 rrcurveto
          0 0 127 -200 0 0 rrcurveto
          13 -18 25 -6 16 12 rrcurveto
          0 0 38 28 0 0 rrcurveto
          0 0 39 28 0 0 rrcurveto
          16 12 2 24 -13 18 rrcurveto
          0 0 -151 184 0 0 rrcurveto
          0 0 -4 4 -1 4 rrcurveto
          0 0 0 3 0 0 rrcurveto
          0 0 1 0 0 0 rrcurveto
          0 0 0 2 0 0 rrcurveto
          0 0 1 2 0 0 rrcurveto
          0 0 -1 0 0 0 rrcurveto
          0 0 2 3 0 0 rrcurveto
          3 3 6 1 0 0 rrcurveto
          0 0 230 59 0 0 rrcurveto
          21 7 12 21 -6 19 rrcurveto
          0 0 -14 46 0 0 rrcurveto
          0 0 -15 45 0 0 rrcurveto
          -6 19 -23 10 -21 -7 rrcurveto
          0 0 -221 -87 0 0 rrcurveto
          0 0 -5 -3 -4 1 rrcurveto
          0 0 -3 1 0 0 rrcurveto
          0 0 0 0 0 0 rrcurveto
          0 0 -2 1 0 0 rrcurveto
          0 0 -1 2 0 0 rrcurveto
          0 0 -1 -1 0 0 rrcurveto
          0 0 -2 3 0 0 rrcurveto
          -2 3 1 7 0 0 rrcurveto
          0 0 15 237 0 0 rrcurveto
          0 22 -16 18 -20 0 rrcurveto
          0 0 -95 0 0 0 rrcurveto
          -20 0 -17 -18 0 -22 rrcurveto
          0 0 15 -237 0 0 rrcurveto
          0 0 1 -7 -2 -3 rrcurveto
          0 0 -2 -3 0 0 rrcurveto
          0 0 -1 1 0 0 rrcurveto
          0 0 -1 -2 0 0 rrcurveto
          0 0 -2 -1 0 0 rrcurveto
          0 0 0 0 0 0 rrcurveto
          0 0 -3 -1 0 0 rrcurveto
          -4 -1 -5 3 0 0 rrcurveto
          0 0 -221 87 0 0 rrcurveto
          -21 7 -23 -10 -6 -19 rrcurveto
          0 0 -15 -45 0 0 rrcurveto
          0 0 -14 -46 0 0 rrcurveto
          -6 -19 12 -21 21 -7 rrcurveto
          0 0 230 -59 0 0 rrcurveto
          endchar
        </CharString>
        <CharString name="at">
          1242 621 988 rmoveto
          0 0 0 0 0 0 rrcurveto
          -332 0 -249 -272 0 -335 rrcurveto
          0 -164 45 -135 123 -90 rrcurveto
          100 -73 133 -40 156 -4 rrcurveto
          0 0 3 0 0 0 rrcurveto
          0 0 111 0 0 0 rrcurveto
          11 0 9 9 0 11 rrcurveto
          0 0 0 84 0 0 rrcurveto
          0 11 -9 9 -11 0 rrcurveto
          0 0 -90 0 0 0 rrcurveto
          -139 0 -314 36 0 333 rrcurveto
          0 271 197 220 256 0 rrcurveto
          256 0 207 -220 0 -271 rrcurveto
          0 -90 -36 -89 -143 -1 rrcurveto
          0 0 -3 0 0 0 rrcurveto
          0 0 -49 0 0 0 rrcurveto
          0 0 0 148 0 0 rrcurveto
          0 0 0 0 0 0 rrcurveto
          0 0 0 120 0 0 rrcurveto
          0 91 45 172 -326 0 rrcurveto
          -75 0 -80 -21 -20 -8 rrcurveto
          -10 -4 -2 -4 2 -9 rrcurveto
          0 0 21 -74 0 0 rrcurveto
          0 0 0 0 0 0 rrcurveto
          0 0 0 0 0 0 rrcurveto
          3 -10 4 -2 8 2 rrcurveto
          21 5 58 27 70 0 rrcurveto
          175 0 2 -32 0 -106 rrcurveto
          0 -4 0 -15 0 -18 rrcurveto
          -38 31 -48 18 -55 0 rrcurveto
          -132 0 -95 -96 0 -133 rrcurveto
          0 -65 51 -125 182 0 rrcurveto
          59 0 51 17 38 18 rrcurveto
          9 -13 15 -9 17 0 rrcurveto
          0 0 91 0 0 0 rrcurveto
          0 0 0 0 0 0 rrcurveto
          0 0 37 0 0 0 rrcurveto
          164 0 107 134 0 157 rrcurveto
          0 335 -249 273 -332 0 rrcurveto
          132 -771 rmoveto
          0 0 -37 -58 -102 0 rrcurveto
          -42 0 -92 0 0 107 rrcurveto
          0 87 51 59 77 0 rrcurveto
          77 0 68 -45 0 -72 rrcurveto
          0 -42 0 -36 0 0 rrcurveto
          endchar
        </CharString>
        <CharString name="b">
          1085 45 0 rmoveto
          0 0 0 0 0 0 rrcurveto
          0 0 167 0 0 0 rrcurveto
          45 0 36 37 0 45 rrcurveto
          0 0 0 11 0 0 rrcurveto
          63 -68 95 -45 139 0 rrcurveto
          303 0 152 179 0 225 rrcurveto
          0 0 0 205 0 0 rrcurveto
          0 0 0 0 0 0 rrcurveto
          -1 262 -204 189 -247 0 rrcurveto
          -116 0 -104 -48 -79 -77 rrcurveto
          0 0 -1 493 0 0 rrcurveto
          0 45 -36 37 -45 0 rrcurveto
          0 0 -167 0 0 0 rrcurveto
          -3 0 -2 -2 0 -3 rrcurveto
          0 0 0 -153 0 0 rrcurveto
          0 -3 2 -2 3 0 rrcurveto
          0 0 85 0 0 0 rrcurveto
          0 0 0 -1163 0 0 rrcurveto
          0 0 -85 0 0 0 rrcurveto
          -3 0 -2 -2 0 -3 rrcurveto
          0 0 0 -154 0 0 rrcurveto
          0 -3 2 -2 3 0 rrcurveto
          248 403 rmoveto
          0 0 0 202 0 0 rrcurveto
          6 171 140 120 154 0 rrcurveto
          157 0 130 -130 0 -190 rrcurveto
          0 0 0 -180 0 0 rrcurveto
          0 -241 -217 -22 -73 0 rrcurveto
          -106 0 -184 46 -7 224 rrcurveto
          endchar
        </CharString>
        <CharString name="backslash">
          657 40 1490 rmoveto
          0 0 0 -30 0 0 rrcurveto
          0 0 416 -1460 0 0 rrcurveto
          0 0 161 0 0 0 rrcurveto
          0 0 0 30 0 0 rrcurveto
          0 0 -405 1460 0 0 rrcurveto
          0 0 -172 0 0 0 rrcurveto
          endchar
        </CharString>
        <CharString name="bar">
          210 40 -72 rmoveto
          0 0 0 1561 0 0 rrcurveto
          0 0 130 0 0 0 rrcurveto
          0 0 0 -1561 0 0 rrcurveto
          0 0 -130 0 0 0 rrcurveto
          endchar
        </CharString>
        <CharString name="braceleft">
          918 873 1700 rmoveto
          0 0 -6 0 0 0 rrcurveto
          -214 0 -166 -70 -118 -170 rrcurveto
          -35 -50 -70 -94 -17 -205 rrcurveto
          -5 -55 -2 -72 -2 -78 rrcurveto
          0 0 -198 -86 0 0 rrcurveto
          0 0 0 -180 0 0 rrcurveto
          0 0 198 -86 0 0 rrcurveto
          2 -78 3 -72 4 -55 rrcurveto
          14 -205 73 -94 35 -50 rrcurveto
          118 -170 166 -70 214 0 rrcurveto
          0 0 6 0 0 0 rrcurveto
          3 0 2 2 0 3 rrcurveto
          0 0 0 155 0 0 rrcurveto
          0 3 -2 2 -3 0 rrcurveto
          0 0 -6 0 0 0 rrcurveto
          -157 0 -114 60 -86 123 rrcurveto
          -58 84 -25 98 -10 186 rrcurveto
          -2 47 -2 53 -1 60 rrcurveto
          0 0 0 23 0 0 rrcurveto
          0 0 -166 71 0 0 rrcurveto
          0 0 166 71 0 0 rrcurveto
          0 0 0 22 0 0 rrcurveto
          1 60 2 54 2 47 rrcurveto
          10 186 25 98 58 84 rrcurveto
          86 123 114 60 157 0 rrcurveto
          0 0 6 0 0 0 rrcurveto
          3 0 2 2 0 3 rrcurveto
          0 0 0 155 0 0 rrcurveto
          0 3 -2 2 -3 0 rrcurveto
          endchar
        </CharString>
        <CharString name="braceright">
          918 51 1700 rmoveto
          0 0 -6 0 0 0 rrcurveto
          -3 0 -2 -2 0 -3 rrcurveto
          0 0 0 -155 0 0 rrcurveto
          0 -3 2 -2 3 0 rrcurveto
          0 0 6 0 0 0 rrcurveto
          157 0 114 -60 86 -123 rrcurveto
          58 -84 25 -98 10 -186 rrcurveto
          2 -47 2 -54 1 -60 rrcurveto
          0 0 0 -22 0 0 rrcurveto
          0 0 166 -71 0 0 rrcurveto
          0 0 -166 -71 0 0 rrcurveto
          0 0 0 -23 0 0 rrcurveto
          -1 -60 -2 -53 -2 -47 rrcurveto
          -10 -186 -25 -98 -58 -84 rrcurveto
          -86 -123 -114 -60 -157 0 rrcurveto
          0 0 -6 0 0 0 rrcurveto
          -3 0 -2 -2 0 -3 rrcurveto
          0 0 0 -155 0 0 rrcurveto
          0 -3 2 -2 3 0 rrcurveto
          0 0 6 0 0 0 rrcurveto
          214 0 166 70 118 170 rrcurveto
          35 50 73 94 14 205 rrcurveto
          4 55 3 72 2 78 rrcurveto
          0 0 198 86 0 0 rrcurveto
          0 0 0 180 0 0 rrcurveto
          0 0 -198 86 0 0 rrcurveto
          -2 78 -2 72 -5 55 rrcurveto
          -17 205 -70 94 -35 50 rrcurveto
          -118 170 -166 70 -214 0 rrcurveto
          endchar
        </CharString>
        <CharString name="bracketleft">
          607 547 1700 rmoveto
          0 0 0 0 0 0 rrcurveto
          0 0 -339 0 0 0 rrcurveto
          0 0 -5 0 0 0 rrcurveto
          0 0 -3 0 0 0 rrcurveto
          0 0 -140 0 0 0 rrcurveto
          -11 0 -9 -9 0 -11 rrcurveto
          0 0 0 -1900 0 0 rrcurveto
          0 -11 9 -9 11 0 rrcurveto
          0 0 140 0 0 0 rrcurveto
          0 0 4 0 0 0 rrcurveto
          0 0 4 0 0 0 rrcurveto
          0 0 339 0 0 0 rrcurveto
          11 0 9 9 0 11 rrcurveto
          0 0 0 120 0 0 rrcurveto
          0 11 -9 9 -11 0 rrcurveto
          0 0 -327 0 0 0 rrcurveto
          0 0 0 1620 0 0 rrcurveto
          0 0 327 0 0 0 rrcurveto
          11 0 9 9 0 11 rrcurveto
          0 0 0 120 0 0 rrcurveto
          0 11 -9 9 -11 0 rrcurveto
          endchar
        </CharString>
        <CharString name="bracketright">
          607 60 1700 rmoveto
          0 0 0 0 0 0 rrcurveto
          -11 0 -9 -9 0 -11 rrcurveto
          0 0 0 -120 0 0 rrcurveto
          0 -11 9 -9 11 0 rrcurveto
          0 0 327 0 0 0 rrcurveto
          0 0 0 -1620 0 0 rrcurveto
          0 0 -327 0 0 0 rrcurveto
          -11 0 -9 -9 0 -11 rrcurveto
          0 0 0 -120 0 0 rrcurveto
          0 -11 9 -9 11 0 rrcurveto
          0 0 339 0 0 0 rrcurveto
          0 0 4 0 0 0 rrcurveto
          0 0 4 0 0 0 rrcurveto
          0 0 140 0 0 0 rrcurveto
          11 0 9 9 0 11 rrcurveto
          0 0 0 1900 0 0 rrcurveto
          0 11 -9 9 -11 0 rrcurveto
          0 0 -140 0 0 0 rrcurveto
          0 0 -3 0 0 0 rrcurveto
          0 0 -5 0 0 0 rrcurveto
          0 0 -339 0 0 0 rrcurveto
          endchar
        </CharString>
        <CharString name="c">
          898 858 262 rmoveto
          0 5 -4 3 -5 2 rrcurveto
          -25 10 -71 34 -33 15 rrcurveto
          -3 1 -3 -2 0 -3 rrcurveto
          0 -154 -129 -31 -106 0 rrcurveto
          -107 0 -168 16 0 234 rrcurveto
          0 0 0 200 0 0 rrcurveto
          0 0 0 0 0 0 rrcurveto
          1 175 119 130 155 0 rrcurveto
          0 0 0 0 0 0 rrcurveto
          0 0 0 0 0 0 rrcurveto
          111 0 80 -50 26 -108 rrcurveto
          2 -10 7 4 7 3 rrcurveto
          30 14 59 33 36 16 rrcurveto
          3 1 4 1 -2 7 rrcurveto
          -41 141 -131 91 -191 0 rrcurveto
          0 0 0 0 0 0 rrcurveto
          0 0 0 0 0 0 rrcurveto
          -246 0 -193 -202 0 -248 rrcurveto
          0 0 0 0 0 0 rrcurveto
          0 0 0 -200 0 0 rrcurveto
          0 0 0 0 0 0 rrcurveto
          1 -215 128 -195 310 0 rrcurveto
          306 0 73 225 0 57 rrcurveto
          endchar
        </CharString>
        <CharString name="colon">
          310 40 297 rmoveto
          0 -31 13 -26 23 -17 rrcurveto
          20 -15 27 -8 32 0 rrcurveto
          32 0 27 8 20 15 rrcurveto
          23 17 13 26 0 31 rrcurveto
          0 64 -52 52 -63 0 rrcurveto
          -63 0 -52 -52 0 -64 rrcurveto
          0 600 rmoveto
          0 -31 13 -26 23 -17 rrcurveto
          20 -15 27 -8 32 0 rrcurveto
          32 0 27 8 20 15 rrcurveto
          23 17 13 26 0 31 rrcurveto
          0 64 -52 52 -63 0 rrcurveto
          -63 0 -52 -52 0 -64 rrcurveto
          endchar
        </CharString>
        <CharString name="comma">
          310 40 97 rmoveto
          0 -31 13 -26 23 -17 rrcurveto
          20 -15 27 -8 32 0 rrcurveto
          32 0 27 8 20 15 rrcurveto
          23 17 13 26 0 31 rrcurveto
          0 64 -52 52 -63 0 rrcurveto
          -63 0 -52 -52 0 -64 rrcurveto
          106 -97 rmoveto
          0 -58 -85 -62 0 0 rrcurveto
          0 0 46 -62 0 0 rrcurveto
          0 0 163 88 0 196 rrcurveto
          -42 16 -20 25 0 0 rrcurveto
          0 0 -88 -49 0 0 rrcurveto
          0 0 26 -36 0 -58 rrcurveto
          endchar
        </CharString>
        <CharString name="d">
          1085 1040 0 rmoveto
          0 0 0 0 0 0 rrcurveto
          3 0 2 2 0 3 rrcurveto
          0 0 0 154 0 0 rrcurveto
          0 3 -2 2 -3 0 rrcurveto
          0 0 -85 0 0 0 rrcurveto
          0 0 0 1163 0 0 rrcurveto
          0 0 85 0 0 0 rrcurveto
          3 0 2 2 0 3 rrcurveto
          0 0 0 153 0 0 rrcurveto
          0 3 -2 2 -3 0 rrcurveto
          0 0 -167 0 0 0 rrcurveto
          -45 0 -36 -37 0 -45 rrcurveto
          0 0 -1 -493 0 0 rrcurveto
          -79 77 -104 48 -116 0 rrcurveto
          -247 0 -204 -189 -1 -262 rrcurveto
          0 0 0 0 0 0 rrcurveto
          0 0 0 -205 0 0 rrcurveto
          0 -225 152 -179 303 0 rrcurveto
          139 0 95 45 63 68 rrcurveto
          0 0 0 -11 0 0 rrcurveto
          0 -45 36 -37 45 0 rrcurveto
          0 0 167 0 0 0 rrcurveto
          -248 605 rmoveto
          0 0 0 -202 0 0 rrcurveto
          -7 -224 -184 -46 -106 0 rrcurveto
          -73 0 -217 22 0 241 rrcurveto
          0 0 0 180 0 0 rrcurveto
          0 190 130 130 157 0 rrcurveto
          154 0 140 -120 6 -171 rrcurveto
          endchar
        </CharString>
        <CharString name="dollar">
          856 483 838 rmoveto
          0 0 0 0 0 0 rrcurveto
          0 0 0 404 0 0 rrcurveto
          38 0 39 0 35 0 rrcurveto
          0 0 0 -70 0 0 rrcurveto
          0 -3 2 -2 3 0 rrcurveto
          0 0 140 0 0 0 rrcurveto
          3 0 2 2 0 3 rrcurveto
          0 0 0 56 0 0 rrcurveto
          0 0 0 93 0 0 rrcurveto
          0 39 -32 32 -39 0 rrcurveto
          0 0 -191 0 0 0 rrcurveto
          0 0 0 133 0 0 rrcurveto
          0 3 -2 2 -3 0 rrcurveto
          0 0 -130 0 0 0 rrcurveto
          -3 0 -2 -2 0 -3 rrcurveto
          0 0 0 -141 0 0 rrcurveto
          -140 -27 -151 -97 0 -244 rrcurveto
          0 -132 102 -152 189 -34 rrcurveto
          0 0 0 -440 0 0 rrcurveto
          0 0 -67 0 0 0 rrcurveto
          0 0 0 0 0 0 rrcurveto
          0 0 -86 0 0 0 rrcurveto
          0 0 0 69 0 0 rrcurveto
          0 3 -2 2 -3 0 rrcurveto
          0 0 -140 0 0 0 rrcurveto
          -3 0 -2 -2 0 -3 rrcurveto
          0 0 0 -147 0 0 rrcurveto
          0 -39 31 -32 39 -1 rrcurveto
          0 0 0 0 0 0 rrcurveto
          0 0 233 0 0 0 rrcurveto
          0 0 0 -103 0 0 rrcurveto
          0 -3 2 -2 3 0 rrcurveto
          0 0 130 0 0 0 rrcurveto
          3 0 2 2 0 3 rrcurveto
          0 0 0 106 0 0 rrcurveto
          345 26 -12 259 0 52 rrcurveto
          0 100 -24 262 -309 28 rrcurveto
          -281 178 rmoveto
          0 102 38 84 103 29 rrcurveto
          0 0 0 -382 0 0 rrcurveto
          -124 28 -17 92 0 47 rrcurveto
          281 -755 rmoveto
          0 0 0 0 0 0 rrcurveto
          0 0 0 427 0 0 rrcurveto
          165 -18 19 -99 0 -123 rrcurveto
          0 -55 -4 -112 -180 -20 rrcurveto
          endchar
        </CharString>
        <CharString name="e">
          932 479 -20 rmoveto
          0 0 0 0 0 0 rrcurveto
          0 0 1 0 0 0 rrcurveto
          0 0 0 0 0 0 rrcurveto
          234 0 129 126 34 49 rrcurveto
          9 13 -141 87 -11 -11 rrcurveto
          -54 -57 -116 -45 -84 0 rrcurveto
          0 0 -1 0 0 0 rrcurveto
          0 0 0 0 0 0 rrcurveto
          -107 0 -168 16 0 234 rrcurveto
          0 0 0 70 0 0 rrcurveto
          0 0 676 27 0 0 rrcurveto
          7 0 5 6 0 7 rrcurveto
          0 0 -1 71 0 0 rrcurveto
          0 0 0 0 0 0 rrcurveto
          -5 314 -162 153 -242 0 rrcurveto
          0 0 -1 0 0 0 rrcurveto
          0 0 0 0 0 0 rrcurveto
          -245 0 -195 -201 -1 -247 rrcurveto
          0 0 0 0 0 0 rrcurveto
          0 0 0 -202 0 0 rrcurveto
          0 0 0 0 0 0 rrcurveto
          1 -215 128 -195 310 0 rrcurveto
          -272 642 rmoveto
          14 159 114 116 146 0 rrcurveto
          50 0 -50 0 0 0 rrcurveto
          0 0 1 0 0 0 rrcurveto
          142 0 87 -109 14 -152 rrcurveto
          0 0 -518 -14 0 0 rrcurveto
          endchar
        </CharString>
        <CharString name="eight">
          1009 40 371 rmoveto
          0 0 0 0 0 0 rrcurveto
          0 -127 50 -103 95 -70 rrcurveto
          81 -59 111 -32 128 0 rrcurveto
          128 0 110 32 81 59 rrcurveto
          95 70 50 103 0 127 rrcurveto
          0 165 -85 146 -128 84 rrcurveto
          16 9 16 8 14 11 rrcurveto
          88 65 46 97 0 118 rrcurveto
          0 241 -193 195 -238 0 rrcurveto
          -238 0 -194 -195 0 -241 rrcurveto
          0 -118 47 -97 88 -65 rrcurveto
          14 -11 16 -8 16 -9 rrcurveto
          -128 -84 -86 -146 0 -165 rrcurveto
          190 701 rmoveto
          0 0 0 0 0 0 rrcurveto
          0 171 124 138 151 0 rrcurveto
          151 0 123 -138 0 -171 rrcurveto
          0 -193 -163 -35 -90 -4 rrcurveto
          -7 0 -7 0 -7 0 rrcurveto
          -7 0 -7 0 -7 0 rrcurveto
          -90 4 -164 35 0 193 rrcurveto
          275 -371 rmoveto
          0 0 0 0 0 0 rrcurveto
          163 0 132 -149 0 -183 rrcurveto
          0 -225 -206 -25 -89 0 rrcurveto
          -89 0 -207 25 0 225 rrcurveto
          0 183 133 149 163 0 rrcurveto
          endchar
        </CharString>
        <CharString name="equal">
          590 20 320 rmoveto
          0 0 0 150 0 0 rrcurveto
          0 0 550 0 0 0 rrcurveto
          0 0 0 -150 0 0 rrcurveto
          0 0 -550 0 0 0 rrcurveto
          0 240 rmoveto
          0 0 0 150 0 0 rrcurveto
          0 0 550 0 0 0 rrcurveto
          0 0 0 -150 0 0 rrcurveto
          0 0 -550 0 0 0 rrcurveto
          endchar
        </CharString>
        <CharString name="exclam">
          280 194 1509 rmoveto
          0 0 0 0 0 0 rrcurveto
          0 0 -104 0 0 0 rrcurveto
          -28 0 -22 -22 0 -28 rrcurveto
          0 0 20 -1177 0 0 rrcurveto
          0 -12 11 -10 12 0 rrcurveto
          0 0 115 0 0 0 rrcurveto
          12 0 10 10 0 12 rrcurveto
          0 0 20 1177 0 0 rrcurveto
          0 28 -18 22 -28 0 rrcurveto
          -54 -1332 rmoveto
          -55 0 -45 -50 0 -62 rrcurveto
          0 -76 70 -9 30 0 rrcurveto
          30 0 70 9 0 76 rrcurveto
          0 62 -45 50 -55 0 rrcurveto
          endchar
        </CharString>
        <CharString name="exclamdbl">
          546 194 1509 rmoveto
          0 0 0 0 0 0 rrcurveto
          0 0 -104 0 0 0 rrcurveto
          -28 0 -22 -22 0 -28 rrcurveto
          0 0 20 -1177 0 0 rrcurveto
          0 -12 11 -10 12 0 rrcurveto
          0 0 115 0 0 0 rrcurveto
          12 0 10 10 0 12 rrcurveto
          0 0 20 1177 0 0 rrcurveto
          0 28 -18 22 -28 0 rrcurveto
          -54 -1332 rmoveto
          -55 0 -45 -50 0 -62 rrcurveto
          0 -76 70 -9 30 0 rrcurveto
          30 0 70 9 0 76 rrcurveto
          0 62 -45 50 -55 0 rrcurveto
          321 1332 rmoveto
          0 0 0 0 0 0 rrcurveto
          0 0 -104 0 0 0 rrcurveto
          -28 0 -22 -22 0 -28 rrcurveto
          0 0 20 -1177 0 0 rrcurveto
          0 -12 11 -10 12 0 rrcurveto
          0 0 115 0 0 0 rrcurveto
          12 0 10 10 0 12 rrcurveto
          0 0 20 1177 0 0 rrcurveto
          0 28 -18 22 -28 0 rrcurveto
          -54 -1332 rmoveto
          -55 0 -45 -50 0 -62 rrcurveto
          0 -76 70 -9 30 0 rrcurveto
          30 0 70 9 0 76 rrcurveto
          0 62 -45 50 -55 0 rrcurveto
          endchar
        </CharString>
        <CharString name="f">
          771 40 5 rmoveto
          0 -3 2 -2 3 0 rrcurveto
          0 0 336 0 0 0 rrcurveto
          3 0 2 2 0 3 rrcurveto
          0 0 0 155 0 0 rrcurveto
          0 3 -2 2 -3 0 rrcurveto
          0 0 -85 0 0 0 rrcurveto
          0 0 0 690 0 0 rrcurveto
          0 0 205 0 0 0 rrcurveto
          3 0 2 2 0 3 rrcurveto
          0 0 0 155 0 0 rrcurveto
          0 3 -2 2 -3 0 rrcurveto
          0 0 -205 0 0 0 rrcurveto
          0 0 0 91 0 0 rrcurveto
          0 176 72 52 146 0 rrcurveto
          54 0 59 -6 44 -6 rrcurveto
          13 -2 8 1 4 17 rrcurveto
          0 0 0 0 0 0 rrcurveto
          0 0 0 0 0 0 rrcurveto
          0 0 34 123 0 0 rrcurveto
          3 14 -2 9 -18 4 rrcurveto
          -67 15 -105 2 -27 0 rrcurveto
          -378 0 -5 -284 0 -150 rrcurveto
          0 0 0 -56 0 0 rrcurveto
          0 0 -86 0 0 0 rrcurveto
          -3 0 -2 -2 0 -3 rrcurveto
          0 0 0 -155 0 0 rrcurveto
          0 -3 2 -2 3 0 rrcurveto
          0 0 36 0 50 0 rrcurveto
          0 0 0 -690 0 0 rrcurveto
          0 0 -86 0 0 0 rrcurveto
          -3 0 -2 -2 0 -3 rrcurveto
          0 0 0 -155 0 0 rrcurveto
          endchar
        </CharString>
        <CharString name="five">
          1003 512 840 rmoveto
          0 0 0 0 0 0 rrcurveto
          0 0 0 0 0 0 rrcurveto
          0 0 -269 0 0 0 rrcurveto
          0 0 0 485 0 0 rrcurveto
          0 0 631 0 0 0 rrcurveto
          3 0 2 2 0 3 rrcurveto
          0 0 0 155 0 0 rrcurveto
          0 3 -2 2 -3 0 rrcurveto
          0 0 -717 0 0 0 rrcurveto
          -44 0 -36 -36 0 -44 rrcurveto
          0 0 0 -650 0 0 rrcurveto
          0 -44 36 -36 44 0 rrcurveto
          0 0 352 0 0 0 rrcurveto
          300 0 -5 -128 0 -183 rrcurveto
          0 -225 -236 -15 -89 0 rrcurveto
          -148 0 -82 76 -64 93 rrcurveto
          0 0 -145 -73 0 0 rrcurveto
          24 -62 40 -51 55 -41 rrcurveto
          81 -59 111 -32 128 0 rrcurveto
          128 0 130 32 81 59 rrcurveto
          95 70 50 103 0 127 rrcurveto
          0 258 -63 210 -388 1 rrcurveto
          endchar
        </CharString>
        <CharString name="four">
          795 87 623 rmoveto
          0 0 0 0 0 0 rrcurveto
          0 0 502 0 0 0 rrcurveto
          0 0 0 -618 0 0 rrcurveto
          0 -3 2 -2 3 0 rrcurveto
          0 0 156 0 0 0 rrcurveto
          3 0 2 2 0 3 rrcurveto
          0 0 0 1348 0 0 rrcurveto
          0 44 -36 36 -44 0 rrcurveto
          0 0 -81 0 0 0 rrcurveto
          -3 0 -2 -2 0 -3 rrcurveto
          0 0 0 -645 0 0 rrcurveto
          0 0 -383 0 0 0 rrcurveto
          0 0 0 570 0 0 rrcurveto
          0 44 -36 36 -44 0 rrcurveto
          0 0 -81 0 0 0 rrcurveto
          -3 0 -2 -2 0 -3 rrcurveto
          0 0 0 -758 0 0 rrcurveto
          0 -26 21 -21 26 0 rrcurveto
          endchar
        </CharString>
        <CharString name="g">
          1048 1003 1020 rmoveto
          0 0 0 0 0 0 rrcurveto
          0 0 -131 0 0 0 rrcurveto
          -23 0 -21 -11 -14 -18 rrcurveto
          0 0 -33 -44 0 0 rrcurveto
          -77 58 -95 35 -104 0 rrcurveto
          -256 0 -209 -210 0 -259 rrcurveto
          0 -100 31 -86 59 -66 rrcurveto
          -45 -47 -26 -61 0 -49 rrcurveto
          0 -104 59 -158 230 0 rrcurveto
          198 0 115 56 112 0 rrcurveto
          30 0 -7 -14 0 -21 rrcurveto
          0 -193 -88 -15 -283 0 rrcurveto
          -52 0 -106 9 -39 7 rrcurveto
          -6 1 -6 -3 -2 -6 rrcurveto
          0 0 -38 -139 0 0 rrcurveto
          -2 -7 4 -7 7 -1 rrcurveto
          64 -14 116 -3 60 0 rrcurveto
          482 0 49 191 0 215 rrcurveto
          0 76 -9 105 -146 0 rrcurveto
          -124 0 -132 -70 -163 0 rrcurveto
          -133 0 -39 36 0 62 rrcurveto
          0 26 13 26 19 19 rrcurveto
          73 -37 90 -19 100 0 rrcurveto
          128 0 110 31 81 59 rrcurveto
          95 70 50 104 0 127 rrcurveto
          0 99 -30 92 -52 76 rrcurveto
          0 0 12 19 0 0 rrcurveto
          0 0 104 0 0 0 rrcurveto
          3 0 2 2 0 3 rrcurveto
          0 0 0 153 0 0 rrcurveto
          0 3 -2 2 -3 0 rrcurveto
          -498 -701 rmoveto
          -89 0 -207 24 0 225 rrcurveto
          0 183 133 150 163 0 rrcurveto
          163 0 132 -150 0 -183 rrcurveto
          0 -225 -206 -24 -89 0 rrcurveto
          endchar
        </CharString>
        <CharString name="grave">
          340 230 1240 rmoveto
          0 0 -230 300 0 0 rrcurveto
          0 0 190 0 0 0 rrcurveto
          0 0 150 -300 0 0 rrcurveto
          0 0 -110 0 0 0 rrcurveto
          endchar
        </CharString>
        <CharString name="greater">
          853 813 413 rmoveto
          0 0 0 180 0 0 rrcurveto
          0 0 -743 324 0 0 rrcurveto
          0 0 -30 1 0 0 rrcurveto
          0 0 0 -172 0 0 rrcurveto
          0 0 567 -243 0 0 rrcurveto
          0 0 -567 -243 0 0 rrcurveto
          0 0 0 -172 0 0 rrcurveto
          0 0 30 1 0 0 rrcurveto
          0 0 743 324 0 0 rrcurveto
          endchar
        </CharString>
        <CharString name="h">
          1088 1048 160 rmoveto
          0 3 -2 2 -3 0 rrcurveto
          0 0 -60 0 0 0 rrcurveto
          0 0 0 470 0 0 rrcurveto
          0 0 0 0 0 0 rrcurveto
          0 225 -144 179 -303 0 rrcurveto
          -102 0 -79 -24 -60 -40 rrcurveto
          0 0 0 433 0 0 rrcurveto
          0 45 -37 37 -45 0 rrcurveto
          0 0 -168 0 0 0 rrcurveto
          -3 0 -2 -2 0 -3 rrcurveto
          0 0 0 -155 0 0 rrcurveto
          0 -3 2 -2 3 0 rrcurveto
          0 0 85 0 0 0 rrcurveto
          0 0 0 -1160 0 0 rrcurveto
          0 0 -85 0 0 0 rrcurveto
          -3 0 -2 -2 0 -3 rrcurveto
          0 0 0 -155 0 0 rrcurveto
          0 -3 2 -2 3 0 rrcurveto
          0 0 312 0 0 0 rrcurveto
          3 0 2 2 0 3 rrcurveto
          0 0 0 155 0 0 rrcurveto
          0 3 -2 2 -3 0 rrcurveto
          0 0 -62 0 0 0 rrcurveto
          0 0 0 626 0 0 rrcurveto
          71 84 116 19 54 0 rrcurveto
          38 0 242 -18 0 -241 rrcurveto
          0 0 0 0 0 0 rrcurveto
          0 0 0 -470 0 0 rrcurveto
          0 0 -85 0 0 0 rrcurveto
          -3 0 -2 -2 0 -3 rrcurveto
          0 0 0 -155 0 0 rrcurveto
          0 -3 2 -2 3 0 rrcurveto
          0 0 312 0 0 0 rrcurveto
          3 0 2 2 0 3 rrcurveto
          0 0 0 155 0 0 rrcurveto
          endchar
        </CharString>
        <CharString name="hyphen">
          540 20 480 rmoveto
          0 0 0 150 0 0 rrcurveto
          0 0 500 0 0 0 rrcurveto
          0 0 0 -150 0 0 rrcurveto
          0 0 -500 0 0 0 rrcurveto
          endchar
        </CharString>
        <CharString name="i">
          412 40 860 rmoveto
          0 -3 2 -2 3 0 rrcurveto
          0 0 85 0 0 0 rrcurveto
          0 0 0 -690 0 0 rrcurveto
          0 0 -75 0 0 0 rrcurveto
          -3 0 -2 -2 0 -3 rrcurveto
          0 0 0 -155 0 0 rrcurveto
          0 -3 2 -2 3 0 rrcurveto
          0 0 312 0 0 0 rrcurveto
          3 0 2 2 0 3 rrcurveto
          0 0 0 155 0 0 rrcurveto
          0 3 -2 2 -3 0 rrcurveto
          0 0 -72 0 0 0 rrcurveto
          0 0 0 773 0 0 rrcurveto
          0 46 -36 36 -46 0 rrcurveto
          0 0 -168 0 0 0 rrcurveto
          -3 0 -2 -2 0 -3 rrcurveto
          0 0 0 -155 0 0 rrcurveto
          16 401 rmoveto
          0 -31 13 -26 23 -17 rrcurveto
          20 -15 27 -8 32 0 rrcurveto
          32 0 27 8 20 15 rrcurveto
          23 17 13 26 0 31 rrcurveto
          0 64 -52 52 -63 0 rrcurveto
          -63 0 -52 -52 0 -64 rrcurveto
          endchar
        </CharString>
        <CharString name="j">
          300 21 1261 rmoveto
          0 -31 13 -26 23 -17 rrcurveto
          20 -15 27 -7 32 0 rrcurveto
          32 0 27 7 20 15 rrcurveto
          23 17 13 26 0 31 rrcurveto
          0 64 -52 53 -63 0 rrcurveto
          -63 0 -52 -53 0 -64 rrcurveto
          -360 -1653 rmoveto
          -3 -14 2 -9 18 -4 rrcurveto
          67 -15 105 -2 27 0 rrcurveto
          378 0 5 285 0 150 rrcurveto
          0 0 0 939 0 0 rrcurveto
          0 46 -36 36 -46 0 rrcurveto
          0 0 -168 0 0 0 rrcurveto
          -3 0 -2 -2 0 -3 rrcurveto
          0 0 0 -154 0 0 rrcurveto
          0 -3 2 -2 3 0 rrcurveto
          0 0 85 0 0 0 rrcurveto
          0 0 0 -893 0 0 rrcurveto
          0 -176 -72 -52 -146 0 rrcurveto
          -54 0 -59 6 -44 6 rrcurveto
          -13 2 -8 -1 -4 -17 rrcurveto
          0 0 0 0 0 0 rrcurveto
          0 0 0 0 0 0 rrcurveto
          0 0 -34 -123 0 0 rrcurveto
          endchar
        </CharString>
        <CharString name="k">
          846 130 165 rmoveto
          0 0 -85 0 0 0 rrcurveto
          -3 0 -2 -2 0 -3 rrcurveto
          0 0 0 -155 0 0 rrcurveto
          0 -3 2 -2 3 0 rrcurveto
          0 0 336 0 0 0 rrcurveto
          3 0 2 2 0 3 rrcurveto
          0 0 0 155 0 0 rrcurveto
          0 3 -2 2 -3 0 rrcurveto
          0 0 -85 0 0 0 rrcurveto
          0 0 0 359 0 0 rrcurveto
          0 0 16 16 0 0 rrcurveto
          88 -146 213 -354 10 -14 rrcurveto
          13 -18 26 -8 23 0 rrcurveto
          0 0 116 0 0 0 rrcurveto
          3 0 2 2 0 3 rrcurveto
          0 0 0 155 0 0 rrcurveto
          0 3 -2 2 -3 0 rrcurveto
          0 0 -75 0 0 0 rrcurveto
          0 0 -301 485 0 0 rrcurveto
          0 0 209 204 0 0 rrcurveto
          0 0 167 0 0 0 rrcurveto
          3 0 2 2 0 3 rrcurveto
          0 0 0 155 0 0 rrcurveto
          0 3 -2 2 -3 0 rrcurveto
          0 0 -169 0 0 0 rrcurveto
          -23 0 -20 -9 -15 -15 rrcurveto
          -12 -12 -186 -181 -80 -78 rrcurveto
          0 0 0 683 0 0 rrcurveto
          0 46 -37 37 -46 0 rrcurveto
          0 0 -168 0 0 0 rrcurveto
          -3 0 -2 -2 0 -3 rrcurveto
          0 0 0 -155 0 0 rrcurveto
          0 -3 2 -2 3 0 rrcurveto
          0 0 85 0 0 0 rrcurveto
          0 0 0 -1160 0 0 rrcurveto
          endchar
        </CharString>
        <CharString name="l">
          426 130 165 rmoveto
          0 0 -85 0 0 0 rrcurveto
          -3 0 -2 -2 0 -3 rrcurveto
          0 0 0 -155 0 0 rrcurveto
          0 -3 2 -2 3 0 rrcurveto
          0 0 336 0 0 0 rrcurveto
          3 0 2 2 0 3 rrcurveto
          0 0 0 155 0 0 rrcurveto
          0 3 -2 2 -3 0 rrcurveto
          0 0 -85 0 0 0 rrcurveto
          0 0 0 1242 0 0 rrcurveto
          0 46 -37 37 -46 0 rrcurveto
          0 0 -168 0 0 0 rrcurveto
          -3 0 -2 -2 0 -3 rrcurveto
          0 0 0 -155 0 0 rrcurveto
          0 -3 2 -2 3 0 rrcurveto
          0 0 85 0 0 0 rrcurveto
          0 0 0 -1160 0 0 rrcurveto
          endchar
        </CharString>
        <CharString name="less">
          853 40 593 rmoveto
          0 0 0 -180 0 0 rrcurveto
          0 0 743 -324 0 0 rrcurveto
          0 0 30 -1 0 0 rrcurveto
          0 0 0 172 0 0 rrcurveto
          0 0 -567 243 0 0 rrcurveto
          0 0 567 243 0 0 rrcurveto
          0 0 0 172 0 0 rrcurveto
          0 0 -30 -1 0 0 rrcurveto
          0 0 -743 -324 0 0 rrcurveto
          endchar
        </CharString>
        <CharString name="lig.f.f">
          1241 40 5 rmoveto
          0 -3 2 -2 3 0 rrcurveto
          0 0 336 0 0 0 rrcurveto
          3 0 2 2 0 3 rrcurveto
          0 0 0 155 0 0 rrcurveto
          0 3 -2 2 -3 0 rrcurveto
          0 0 -85 0 0 0 rrcurveto
          0 0 0 690 0 0 rrcurveto
          0 0 205 0 0 0 rrcurveto
          3 0 2 2 0 3 rrcurveto
          0 0 0 155 0 0 rrcurveto
          0 3 -2 2 -3 0 rrcurveto
          0 0 -205 0 0 0 rrcurveto
          0 0 0 91 0 0 rrcurveto
          0 176 72 52 146 0 rrcurveto
          54 0 59 -6 44 -6 rrcurveto
          13 -2 8 1 4 17 rrcurveto
          0 0 0 0 0 0 rrcurveto
          0 0 0 0 0 0 rrcurveto
          0 0 34 123 0 0 rrcurveto
          3 14 -2 9 -18 4 rrcurveto
          -67 15 -105 2 -27 0 rrcurveto
          -378 0 -5 -284 0 -150 rrcurveto
          0 0 0 -56 0 0 rrcurveto
          0 0 -86 0 0 0 rrcurveto
          -3 0 -2 -2 0 -3 rrcurveto
          0 0 0 -155 0 0 rrcurveto
          0 -3 2 -2 3 0 rrcurveto
          0 0 36 0 50 0 rrcurveto
          0 0 0 -690 0 0 rrcurveto
          0 0 -86 0 0 0 rrcurveto
          -3 0 -2 -2 0 -3 rrcurveto
          0 0 0 -155 0 0 rrcurveto
          450 0 rmoveto
          0 -3 2 -2 3 0 rrcurveto
          0 0 336 0 0 0 rrcurveto
          3 0 2 2 0 3 rrcurveto
          0 0 0 155 0 0 rrcurveto
          0 3 -2 2 -3 0 rrcurveto
          0 0 -85 0 0 0 rrcurveto
          0 0 0 690 0 0 rrcurveto
          0 0 205 0 0 0 rrcurveto
          3 0 2 2 0 3 rrcurveto
          0 0 0 155 0 0 rrcurveto
          0 3 -2 2 -3 0 rrcurveto
          0 0 -205 0 0 0 rrcurveto
          0 0 0 91 0 0 rrcurveto
          0 176 72 52 146 0 rrcurveto
          54 0 59 -6 44 -6 rrcurveto
          13 -2 8 1 4 17 rrcurveto
          0 0 0 0 0 0 rrcurveto
          0 0 0 0 0 0 rrcurveto
          0 0 34 123 0 0 rrcurveto
          3 14 -2 9 -18 4 rrcurveto
          -67 15 -105 2 -27 0 rrcurveto
          -378 0 -5 -284 0 -150 rrcurveto
          0 0 0 -56 0 0 rrcurveto
          0 0 -86 0 0 0 rrcurveto
          -3 0 -2 -2 0 -3 rrcurveto
          0 0 0 -155 0 0 rrcurveto
          0 -3 2 -2 3 0 rrcurveto
          0 0 36 0 50 0 rrcurveto
          0 0 0 -690 0 0 rrcurveto
          0 0 -86 0 0 0 rrcurveto
          -3 0 -2 -2 0 -3 rrcurveto
          0 0 0 -155 0 0 rrcurveto
          246 1487 rmoveto
          -185 43 93 -183 0 0 rrcurveto
          0 0 226 109 -134 31 rrcurveto
          endchar
        </CharString>
        <CharString name="lig.f.f.i">
          1422 490 5 rmoveto
          0 -3 2 -2 3 0 rrcurveto
          0 0 336 0 0 0 rrcurveto
          3 0 2 2 0 3 rrcurveto
          0 0 0 155 0 0 rrcurveto
          0 3 -2 2 -3 0 rrcurveto
          0 0 -85 0 0 0 rrcurveto
          0 0 0 690 0 0 rrcurveto
          0 0 205 0 0 0 rrcurveto
          3 0 2 2 0 3 rrcurveto
          0 0 0 155 0 0 rrcurveto
          0 3 -2 2 -3 0 rrcurveto
          0 0 -205 0 0 0 rrcurveto
          0 0 0 91 0 0 rrcurveto
          0 176 72 52 146 0 rrcurveto
          54 0 59 -6 44 -6 rrcurveto
          13 -2 8 1 4 17 rrcurveto
          0 0 0 0 0 0 rrcurveto
          0 0 0 0 0 0 rrcurveto
          0 0 34 123 0 0 rrcurveto
          3 14 -2 9 -18 4 rrcurveto
          -67 15 -105 2 -27 0 rrcurveto
          -378 0 -5 -284 0 -150 rrcurveto
          0 0 0 -56 0 0 rrcurveto
          0 0 -86 0 0 0 rrcurveto
          -3 0 -2 -2 0 -3 rrcurveto
          0 0 0 -155 0 0 rrcurveto
          0 -3 2 -2 3 0 rrcurveto
          0 0 36 0 50 0 rrcurveto
          0 0 0 -690 0 0 rrcurveto
          0 0 -86 0 0 0 rrcurveto
          -3 0 -2 -2 0 -3 rrcurveto
          0 0 0 -155 0 0 rrcurveto
          560 855 rmoveto
          0 -3 2 -2 3 0 rrcurveto
          0 0 85 0 0 0 rrcurveto
          0 0 0 -690 0 0 rrcurveto
          0 0 -75 0 0 0 rrcurveto
          -3 0 -2 -2 0 -3 rrcurveto
          0 0 0 -155 0 0 rrcurveto
          0 -3 2 -2 3 0 rrcurveto
          0 0 312 0 0 0 rrcurveto
          3 0 2 2 0 3 rrcurveto
          0 0 0 155 0 0 rrcurveto
          0 3 -2 2 -3 0 rrcurveto
          0 0 -72 0 0 0 rrcurveto
          0 0 0 773 0 0 rrcurveto
          0 46 -36 36 -46 0 rrcurveto
          0 0 -168 0 0 0 rrcurveto
          -3 0 -2 -2 0 -3 rrcurveto
          0 0 0 -155 0 0 rrcurveto
          16 401 rmoveto
          0 -31 13 -26 23 -17 rrcurveto
          20 -15 27 -8 32 0 rrcurveto
          32 0 27 8 20 15 rrcurveto
          23 17 13 26 0 31 rrcurveto
          0 64 -52 52 -63 0 rrcurveto
          -63 0 -52 -52 0 -64 rrcurveto
          95 233 rmoveto
          -187 31 120 -101 36 -103 rrcurveto
          36 -103 104 -43 22 57 rrcurveto
          22 57 5 179 -158 26 rrcurveto
          -404 -474 rmoveto
          0 0 0 -165 0 0 rrcurveto
          0 0 429 0 0 0 rrcurveto
          0 0 0 165 0 0 rrcurveto
          0 0 -429 0 0 0 rrcurveto
          -717 -1015 rmoveto
          0 -3 2 -2 3 0 rrcurveto
          0 0 336 0 0 0 rrcurveto
          3 0 2 2 0 3 rrcurveto
          0 0 0 155 0 0 rrcurveto
          0 3 -2 2 -3 0 rrcurveto
          0 0 -85 0 0 0 rrcurveto
          0 0 0 690 0 0 rrcurveto
          0 0 205 0 0 0 rrcurveto
          3 0 2 2 0 3 rrcurveto
          0 0 0 155 0 0 rrcurveto
          0 3 -2 2 -3 0 rrcurveto
          0 0 -205 0 0 0 rrcurveto
          0 0 0 91 0 0 rrcurveto
          0 176 72 52 146 0 rrcurveto
          54 0 59 -6 44 -6 rrcurveto
          13 -2 8 1 4 17 rrcurveto
          0 0 0 0 0 0 rrcurveto
          0 0 0 0 0 0 rrcurveto
          0 0 34 123 0 0 rrcurveto
          3 14 -2 9 -18 4 rrcurveto
          -67 15 -105 2 -27 0 rrcurveto
          -378 0 -5 -284 0 -150 rrcurveto
          0 0 0 -56 0 0 rrcurveto
          0 0 -86 0 0 0 rrcurveto
          -3 0 -2 -2 0 -3 rrcurveto
          0 0 0 -155 0 0 rrcurveto
          0 -3 2 -2 3 0 rrcurveto
          0 0 36 0 50 0 rrcurveto
          0 0 0 -690 0 0 rrcurveto
          0 0 -86 0 0 0 rrcurveto
          -3 0 -2 -2 0 -3 rrcurveto
          0 0 0 -155 0 0 rrcurveto
          674 1487 rmoveto
          -185 43 93 -183 0 0 rrcurveto
          0 0 226 109 -134 31 rrcurveto
          endchar
        </CharString>
        <CharString name="lig.f.f.l">
          1362 60 5 rmoveto
          0 -3 2 -2 3 0 rrcurveto
          0 0 336 0 0 0 rrcurveto
          3 0 2 2 0 3 rrcurveto
          0 0 0 155 0 0 rrcurveto
          0 3 -2 2 -3 0 rrcurveto
          0 0 -85 0 0 0 rrcurveto
          0 0 0 690 0 0 rrcurveto
          0 0 205 0 0 0 rrcurveto
          3 0 2 2 0 3 rrcurveto
          0 0 0 155 0 0 rrcurveto
          0 3 -2 2 -3 0 rrcurveto
          0 0 -205 0 0 0 rrcurveto
          0 0 0 91 0 0 rrcurveto
          0 176 72 52 146 0 rrcurveto
          54 0 59 -6 44 -6 rrcurveto
          13 -2 8 1 4 17 rrcurveto
          0 0 0 0 0 0 rrcurveto
          0 0 0 0 0 0 rrcurveto
          0 0 34 123 0 0 rrcurveto
          3 14 -2 9 -18 4 rrcurveto
          -67 15 -105 2 -27 0 rrcurveto
          -378 0 -5 -284 0 -150 rrcurveto
          0 0 0 -56 0 0 rrcurveto
          0 0 -86 0 0 0 rrcurveto
          -3 0 -2 -2 0 -3 rrcurveto
          0 0 0 -155 0 0 rrcurveto
          0 -3 2 -2 3 0 rrcurveto
          0 0 36 0 50 0 rrcurveto
          0 0 0 -690 0 0 rrcurveto
          0 0 -86 0 0 0 rrcurveto
          -3 0 -2 -2 0 -3 rrcurveto
          0 0 0 -155 0 0 rrcurveto
          450 0 rmoveto
          0 -3 2 -2 3 0 rrcurveto
          0 0 336 0 0 0 rrcurveto
          3 0 2 2 0 3 rrcurveto
          0 0 0 155 0 0 rrcurveto
          0 3 -2 2 -3 0 rrcurveto
          0 0 -85 0 0 0 rrcurveto
          0 0 0 690 0 0 rrcurveto
          0 0 205 0 0 0 rrcurveto
          3 0 2 2 0 3 rrcurveto
          0 0 0 155 0 0 rrcurveto
          0 3 -2 2 -3 0 rrcurveto
          0 0 -205 0 0 0 rrcurveto
          0 0 0 91 0 0 rrcurveto
          0 176 72 52 146 0 rrcurveto
          54 0 59 -6 44 -6 rrcurveto
          13 -2 8 1 4 17 rrcurveto
          0 0 0 0 0 0 rrcurveto
          0 0 0 0 0 0 rrcurveto
          0 0 34 123 0 0 rrcurveto
          3 14 -2 9 -18 4 rrcurveto
          -67 15 -105 2 -27 0 rrcurveto
          -378 0 -5 -284 0 -150 rrcurveto
          0 0 0 -56 0 0 rrcurveto
          0 0 -86 0 0 0 rrcurveto
          -3 0 -2 -2 0 -3 rrcurveto
          0 0 0 -155 0 0 rrcurveto
          0 -3 2 -2 3 0 rrcurveto
          0 0 36 0 50 0 rrcurveto
          0 0 0 -690 0 0 rrcurveto
          0 0 -86 0 0 0 rrcurveto
          -3 0 -2 -2 0 -3 rrcurveto
          0 0 0 -155 0 0 rrcurveto
          246 1487 rmoveto
          -185 43 93 -183 0 0 rrcurveto
          0 0 226 109 -134 31 rrcurveto
          310 -1327 rmoveto
          0 0 -85 0 0 0 rrcurveto
          -3 0 -2 -2 0 -3 rrcurveto
          0 0 0 -155 0 0 rrcurveto
          0 -3 2 -2 3 0 rrcurveto
          0 0 336 0 0 0 rrcurveto
          3 0 2 2 0 3 rrcurveto
          0 0 0 155 0 0 rrcurveto
          0 3 -2 2 -3 0 rrcurveto
          0 0 -85 0 0 0 rrcurveto
          0 0 -1 1245 0 0 rrcurveto
          0 46 -37 37 -46 0 rrcurveto
          0 0 -82 -128 0 0 rrcurveto
          0 0 0 -1200 0 0 rrcurveto
          endchar
        </CharString>
        <CharString name="lig.f.i">
          992 40 5 rmoveto
          0 -3 2 -2 3 0 rrcurveto
          0 0 336 0 0 0 rrcurveto
          3 0 2 2 0 3 rrcurveto
          0 0 0 155 0 0 rrcurveto
          0 3 -2 2 -3 0 rrcurveto
          0 0 -85 0 0 0 rrcurveto
          0 0 0 690 0 0 rrcurveto
          0 0 205 0 0 0 rrcurveto
          3 0 2 2 0 3 rrcurveto
          0 0 0 155 0 0 rrcurveto
          0 3 -2 2 -3 0 rrcurveto
          0 0 -205 0 0 0 rrcurveto
          0 0 0 91 0 0 rrcurveto
          0 176 72 52 146 0 rrcurveto
          54 0 59 -6 44 -6 rrcurveto
          13 -2 8 1 4 17 rrcurveto
          0 0 0 0 0 0 rrcurveto
          0 0 0 0 0 0 rrcurveto
          0 0 34 123 0 0 rrcurveto
          3 14 -2 9 -18 4 rrcurveto
          -67 15 -105 2 -27 0 rrcurveto
          -378 0 -5 -284 0 -150 rrcurveto
          0 0 0 -56 0 0 rrcurveto
          0 0 -86 0 0 0 rrcurveto
          -3 0 -2 -2 0 -3 rrcurveto
          0 0 0 -155 0 0 rrcurveto
          0 -3 2 -2 3 0 rrcurveto
          0 0 36 0 50 0 rrcurveto
          0 0 0 -690 0 0 rrcurveto
          0 0 -86 0 0 0 rrcurveto
          -3 0 -2 -2 0 -3 rrcurveto
          0 0 0 -155 0 0 rrcurveto
          560 855 rmoveto
          0 -3 2 -2 3 0 rrcurveto
          0 0 85 0 0 0 rrcurveto
          0 0 0 -690 0 0 rrcurveto
          0 0 -75 0 0 0 rrcurveto
          -3 0 -2 -2 0 -3 rrcurveto
          0 0 0 -155 0 0 rrcurveto
          0 -3 2 -2 3 0 rrcurveto
          0 0 312 0 0 0 rrcurveto
          3 0 2 2 0 3 rrcurveto
          0 0 0 155 0 0 rrcurveto
          0 3 -2 2 -3 0 rrcurveto
          0 0 -72 0 0 0 rrcurveto
          0 0 0 773 0 0 rrcurveto
          0 46 -36 36 -46 0 rrcurveto
          0 0 -168 0 0 0 rrcurveto
          -3 0 -2 -2 0 -3 rrcurveto
          0 0 0 -155 0 0 rrcurveto
          16 401 rmoveto
          0 -31 13 -26 23 -17 rrcurveto
          20 -15 27 -8 32 0 rrcurveto
          32 0 27 8 20 15 rrcurveto
          23 17 13 26 0 31 rrcurveto
          0 64 -52 52 -63 0 rrcurveto
          -63 0 -52 -52 0 -64 rrcurveto
          95 233 rmoveto
          -187 31 120 -101 36 -103 rrcurveto
          36 -103 104 -43 22 57 rrcurveto
          22 57 5 179 -158 26 rrcurveto
          -404 -474 rmoveto
          0 0 0 -165 0 0 rrcurveto
          0 0 429 0 0 0 rrcurveto
          0 0 0 165 0 0 rrcurveto
          0 0 -429 0 0 0 rrcurveto
          endchar
        </CharString>
        <CharString name="lig.f.l">
          916 40 5 rmoveto
          0 -3 2 -2 3 0 rrcurveto
          0 0 336 0 0 0 rrcurveto
          3 0 2 2 0 3 rrcurveto
          0 0 0 155 0 0 rrcurveto
          0 3 -2 2 -3 0 rrcurveto
          0 0 -85 0 0 0 rrcurveto
          0 0 0 690 0 0 rrcurveto
          0 0 205 0 0 0 rrcurveto
          3 0 2 2 0 3 rrcurveto
          0 0 0 155 0 0 rrcurveto
          0 3 -2 2 -3 0 rrcurveto
          0 0 -205 0 0 0 rrcurveto
          0 0 0 91 0 0 rrcurveto
          0 176 72 52 146 0 rrcurveto
          54 0 59 -6 44 -6 rrcurveto
          13 -2 8 1 4 17 rrcurveto
          0 0 0 0 0 0 rrcurveto
          0 0 0 0 0 0 rrcurveto
          0 0 34 123 0 0 rrcurveto
          3 14 -2 9 -18 4 rrcurveto
          -67 15 -105 2 -27 0 rrcurveto
          -378 0 -5 -284 0 -150 rrcurveto
          0 0 0 -56 0 0 rrcurveto
          0 0 -86 0 0 0 rrcurveto
          -3 0 -2 -2 0 -3 rrcurveto
          0 0 0 -155 0 0 rrcurveto
          0 -3 2 -2 3 0 rrcurveto
          0 0 36 0 50 0 rrcurveto
          0 0 0 -690 0 0 rrcurveto
          0 0 -86 0 0 0 rrcurveto
          -3 0 -2 -2 0 -3 rrcurveto
          0 0 0 -155 0 0 rrcurveto
          580 160 rmoveto
          0 0 -85 0 0 0 rrcurveto
          -3 0 -2 -2 0 -3 rrcurveto
          0 0 0 -155 0 0 rrcurveto
          0 -3 2 -2 3 0 rrcurveto
          0 0 336 0 0 0 rrcurveto
          3 0 2 2 0 3 rrcurveto
          0 0 0 155 0 0 rrcurveto
          0 3 -2 2 -3 0 rrcurveto
          0 0 -85 0 0 0 rrcurveto
          0 0 -1 1245 0 0 rrcurveto
          0 46 -37 37 -46 0 rrcurveto
          0 0 -82 -128 0 0 rrcurveto
          0 0 0 -1200 0 0 rrcurveto
          endchar
        </CharString>
        <CharString name="lig.j.u.s.t.a.n.a.m.e.o.k.xxxxxxxxx.xxxx.x.xxxxxxxxxx.x.x.x.xxxxxxxxxx.xxx.xxxxxxxxxx.x.x.x.x.xxxxxxxxxx.x.x.x.x.xxxxxxxxxx.x.x.x.xxxxxxxxxx.x.x.x.x.x.xxxx.xxxxxxxxxx.xxxxx.xxxxx.xxxxx.xxxxxxxxxx">
          1 1410 1217 rmoveto
          102 0 83 -82 0 -102 rrcurveto
          0 -102 -83 -81 -102 0 rrcurveto
          -102 0 -83 82 0 101 rrcurveto
          0 101 83 83 102 0 rrcurveto
          -1079 -11 rmoveto
          102 0 83 -82 0 -102 rrcurveto
          0 -102 -83 -81 -102 0 rrcurveto
          -102 0 -83 82 0 101 rrcurveto
          0 101 83 83 102 0 rrcurveto
          0 0 0 0 0 0 rrcurveto
          361 -1190 rmoveto
          -725 85 22 294 29 200 rrcurveto
          28 199 975 -95 535 -82 rrcurveto
          535 -82 -674 -605 -725 86 rrcurveto
          0 0 0 0 0 0 rrcurveto
          endchar
        </CharString>
        <CharString name="m">
          1556 1511 165 rmoveto
          0 0 0 0 0 0 rrcurveto
          0 0 -60 0 0 0 rrcurveto
          0 0 0 470 0 0 rrcurveto
          0 0 0 0 0 0 rrcurveto
          0 225 -114 179 -303 0 rrcurveto
          -114 0 -85 -30 -62 -49 rrcurveto
          -66 50 -91 29 -123 0 rrcurveto
          -90 0 -71 -18 -57 -32 rrcurveto
          -15 18 -22 12 -26 0 rrcurveto
          0 0 -167 0 0 0 rrcurveto
          -3 0 -2 -2 0 -3 rrcurveto
          0 0 0 -155 0 0 rrcurveto
          0 -3 2 -2 3 0 rrcurveto
          0 0 84 0 0 0 rrcurveto
          0 0 0 -689 0 0 rrcurveto
          0 0 -84 0 0 0 rrcurveto
          -3 0 -2 -2 0 -3 rrcurveto
          0 0 0 -155 0 0 rrcurveto
          0 -3 2 -2 3 0 rrcurveto
          0 0 312 0 0 0 rrcurveto
          3 0 2 2 0 3 rrcurveto
          0 0 0 155 0 0 rrcurveto
          0 3 -2 2 -3 0 rrcurveto
          0 0 -63 0 0 0 rrcurveto
          0 0 0 665 0 0 rrcurveto
          69 51 86 13 44 0 rrcurveto
          38 0 212 -18 0 -241 rrcurveto
          0 0 0 0 0 0 rrcurveto
          0 0 0 -470 0 0 rrcurveto
          0 0 -42 0 0 0 rrcurveto
          -3 0 -2 -2 0 -3 rrcurveto
          0 0 0 -155 0 0 rrcurveto
          0 -3 2 -2 3 0 rrcurveto
          0 0 252 0 0 0 rrcurveto
          3 0 2 2 0 3 rrcurveto
          0 0 0 155 0 0 rrcurveto
          0 3 -2 2 -3 0 rrcurveto
          0 0 -43 0 0 0 rrcurveto
          0 0 0 470 0 0 rrcurveto
          0 0 0 0 0 0 rrcurveto
          0 79 -14 73 -31 62 rrcurveto
          62 35 69 10 38 0 rrcurveto
          38 0 212 -18 0 -241 rrcurveto
          0 0 0 0 0 0 rrcurveto
          0 0 0 -470 0 0 rrcurveto
          0 0 -85 0 0 0 rrcurveto
          -3 0 -2 -2 0 -3 rrcurveto
          0 0 0 -155 0 0 rrcurveto
          0 -3 2 -2 3 0 rrcurveto
          0 0 312 0 0 0 rrcurveto
          3 0 2 2 0 3 rrcurveto
          0 0 0 155 0 0 rrcurveto
          0 3 -2 2 -3 0 rrcurveto
          endchar
        </CharString>
        <CharString name="n">
          1088 1048 160 rmoveto
          0 3 -2 2 -3 0 rrcurveto
          0 0 -60 0 0 0 rrcurveto
          0 0 0 470 0 0 rrcurveto
          0 225 -144 179 -303 0 rrcurveto
          -107 0 -81 -27 -61 -43 rrcurveto
          -13 29 -28 21 -34 0 rrcurveto
          0 0 -167 0 0 0 rrcurveto
          -3 0 -2 -2 0 -3 rrcurveto
          0 0 0 -155 0 0 rrcurveto
          0 -3 2 -2 3 0 rrcurveto
          0 0 84 0 0 0 rrcurveto
          0 0 0 -689 0 0 rrcurveto
          0 0 -84 0 0 0 rrcurveto
          -3 0 -2 -2 0 -3 rrcurveto
          0 0 0 -155 0 0 rrcurveto
          0 -3 2 -2 3 0 rrcurveto
          0 0 312 0 0 0 rrcurveto
          3 0 2 2 0 3 rrcurveto
          0 0 0 155 0 0 rrcurveto
          0 3 -2 2 -3 0 rrcurveto
          0 0 -63 0 0 0 rrcurveto
          0 0 0 625 0 0 rrcurveto
          71 84 117 20 54 0 rrcurveto
          38 0 242 -18 0 -241 rrcurveto
          0 0 0 -470 0 0 rrcurveto
          0 0 -85 0 0 0 rrcurveto
          -3 0 -2 -2 0 -3 rrcurveto
          0 0 0 -155 0 0 rrcurveto
          0 -3 2 -2 3 0 rrcurveto
          0 0 312 0 0 0 rrcurveto
          3 0 2 2 0 3 rrcurveto
          0 0 0 155 0 0 rrcurveto
          endchar
        </CharString>
        <CharString name="nine">
          1009 969 1006 rmoveto
          0 0 0 0 0 0 rrcurveto
          0 0 0 1 0 0 rrcurveto
          0 8 0 7 0 7 rrcurveto
          0 0 -1 3 0 0 rrcurveto
          0 0 0 1 0 0 rrcurveto
          -14 246 -202 196 -247 0 rrcurveto
          -256 0 -209 -210 0 -259 rrcurveto
          0 -127 50 -103 95 -70 rrcurveto
          81 -59 111 -32 128 0 rrcurveto
          113 0 98 24 77 46 rrcurveto
          -11 -167 -25 -91 -55 -79 rrcurveto
          -85 -122 -112 -60 -155 -1 rrcurveto
          0 0 0 0 0 0 rrcurveto
          0 0 -96 0 0 0 rrcurveto
          -3 0 -2 -2 0 -3 rrcurveto
          0 0 0 -155 0 0 rrcurveto
          0 -3 2 -2 3 0 rrcurveto
          0 0 96 0 0 0 rrcurveto
          0 0 0 0 0 0 rrcurveto
          211 1 155 80 117 169 rrcurveto
          52 75 84 159 0 522 rrcurveto
          0 0 0 0 0 0 rrcurveto
          0 0 0 0 0 0 rrcurveto
          -464 -252 rmoveto
          0 0 0 0 0 0 rrcurveto
          -89 0 -207 25 0 225 rrcurveto
          0 183 133 149 163 0 rrcurveto
          163 0 132 -149 0 -183 rrcurveto
          0 -225 -206 -25 -89 0 rrcurveto
          endchar
        </CharString>
        <CharString name="numbersign">
          1103 45 317 rmoveto
          0 0 234 0 0 0 rrcurveto
          0 0 -27 -313 0 0 rrcurveto
          0 -2 2 -2 3 0 rrcurveto
          0 0 120 0 0 0 rrcurveto
          3 0 2 2 0 2 rrcurveto
          0 0 27 313 0 0 rrcurveto
          0 0 254 0 0 0 rrcurveto
          0 0 -27 -313 0 0 rrcurveto
          0 -2 2 -2 3 0 rrcurveto
          0 0 120 0 0 0 rrcurveto
          3 0 2 2 0 2 rrcurveto
          0 0 27 313 0 0 rrcurveto
          0 0 235 0 0 0 rrcurveto
          3 0 2 2 0 3 rrcurveto
          0 0 10 120 0 0 rrcurveto
          0 3 -2 2 -3 0 rrcurveto
          0 0 -234 0 0 0 rrcurveto
          0 0 24 268 0 0 rrcurveto
          0 0 220 0 0 0 rrcurveto
          3 0 2 2 0 3 rrcurveto
          0 0 10 120 0 0 rrcurveto
          0 3 -2 2 -3 0 rrcurveto
          0 0 -219 0 0 0 rrcurveto
          0 0 27 301 0 0 rrcurveto
          0 2 -2 2 -3 0 rrcurveto
          0 0 -120 0 0 0 rrcurveto
          -3 0 -2 -2 0 -2 rrcurveto
          0 0 -27 -301 0 0 rrcurveto
          0 0 -254 0 0 0 rrcurveto
          0 0 27 301 0 0 rrcurveto
          0 2 -2 2 -3 0 rrcurveto
          0 0 -120 0 0 0 rrcurveto
          -3 0 -2 -2 0 -2 rrcurveto
          0 0 -27 -301 0 0 rrcurveto
          0 0 -250 0 0 0 rrcurveto
          -3 0 -2 -2 0 -3 rrcurveto
          0 0 -10 -120 0 0 rrcurveto
          0 -3 2 -2 3 0 rrcurveto
          0 0 249 0 0 0 rrcurveto
          0 0 -24 -268 0 0 rrcurveto
          0 0 -235 0 0 0 rrcurveto
          -3 0 -2 -2 0 -3 rrcurveto
          0 0 -10 -120 0 0 rrcurveto
          0 -3 2 -2 3 0 rrcurveto
          399 398 rmoveto
          0 0 254 0 0 0 rrcurveto
          0 0 -24 -268 0 0 rrcurveto
          0 0 -254 0 0 0 rrcurveto
          0 0 24 268 0 0 rrcurveto
          endchar
        </CharString>
        <CharString name="o">
          959 919 592 rmoveto
          0 0 0 0 0 0 rrcurveto
          -1 247 -193 201 -245 0 rrcurveto
          -245 0 -193 -201 -1 -247 rrcurveto
          0 0 -1 0 0 0 rrcurveto
          0 0 0 -202 0 0 rrcurveto
          0 0 0 0 0 0 rrcurveto
          1 -215 129 -195 310 0 rrcurveto
          0 0 0 0 0 0 rrcurveto
          310 0 128 195 1 215 rrcurveto
          0 0 0 0 0 0 rrcurveto
          0 0 0 202 0 0 rrcurveto
          -164 -200 rmoveto
          0 -234 -168 -16 -107 0 rrcurveto
          -50 0 49 0 0 0 rrcurveto
          0 0 0 0 0 0 rrcurveto
          -107 0 -168 16 0 234 rrcurveto
          0 0 0 198 0 0 rrcurveto
          0 0 1 0 0 0 rrcurveto
          0 176 119 131 156 0 rrcurveto
          156 0 119 -131 0 -176 rrcurveto
          0 0 0 0 0 0 rrcurveto
          0 0 0 -198 0 0 rrcurveto
          endchar
        </CharString>
        <CharString name="one">
          373 44 1268 rmoveto
          0 0 123 -38 0 0 rrcurveto
          0 0 0 -1225 0 0 rrcurveto
          0 -3 2 -2 3 0 rrcurveto
          0 0 156 0 0 0 rrcurveto
          3 0 2 2 0 3 rrcurveto
          0 0 0 1405 0 0 rrcurveto
          0 44 -36 36 -44 0 rrcurveto
          0 0 -116 0 0 0 rrcurveto
          -24 -100 -57 -91 -15 -23 rrcurveto
          -2 -3 2 -4 3 -1 rrcurveto
          endchar
        </CharString>
        <CharString name="p">
          1090 40 1016 rmoveto
          0 0 0 0 0 0 rrcurveto
          0 0 0 -153 0 0 rrcurveto
          0 -3 2 -2 3 0 rrcurveto
          0 0 35 0 50 0 rrcurveto
          0 -351 0 -772 0 0 rrcurveto
          0 0 -84 0 0 0 rrcurveto
          -3 0 -2 -2 0 -3 rrcurveto
          0 0 0 -154 0 0 rrcurveto
          0 -3 2 -2 3 0 rrcurveto
          0 0 166 0 0 0 rrcurveto
          45 0 37 37 0 45 rrcurveto
          0 0 0 446 0 0 rrcurveto
          62 -71 97 -47 142 0 rrcurveto
          303 0 152 179 0 225 rrcurveto
          0 0 0 204 0 0 rrcurveto
          -1 262 -204 190 -247 0 rrcurveto
          -118 0 -108 -51 -79 -80 rrcurveto
          0 0 0 30 0 0 rrcurveto
          0 45 -36 36 -45 0 rrcurveto
          0 0 -167 0 0 0 rrcurveto
          -3 0 -2 -2 0 -3 rrcurveto
          555 -882 rmoveto
          -108 0 -189 48 0 235 rrcurveto
          0 5 0 128 0 45 rrcurveto
          0 177 143 125 157 0 rrcurveto
          157 0 130 -130 0 -190 rrcurveto
          0 0 0 -180 0 0 rrcurveto
          0 -241 -217 -22 -73 0 rrcurveto
          endchar
        </CharString>
        <CharString name="parenleft">
          722 677 1700 rmoveto
          0 0 -7 0 0 0 rrcurveto
          -214 0 -165 -70 -118 -170 rrcurveto
          -35 -50 -70 -94 -17 -205 rrcurveto
          -16 -190 3 -382 13 -190 rrcurveto
          14 -205 73 -94 35 -50 rrcurveto
          118 -170 165 -70 214 0 rrcurveto
          0 0 7 0 0 0 rrcurveto
          3 0 2 2 0 3 rrcurveto
          0 0 0 155 0 0 rrcurveto
          0 3 -2 2 -3 0 rrcurveto
          0 0 -7 0 0 0 rrcurveto
          -157 0 -113 60 -86 123 rrcurveto
          -73 105 -22 127 -3 296 rrcurveto
          0 0 0 187 0 0 rrcurveto
          3 296 22 128 73 105 rrcurveto
          86 123 113 60 157 0 rrcurveto
          0 0 7 0 0 0 rrcurveto
          3 0 2 2 0 3 rrcurveto
          0 0 0 155 0 0 rrcurveto
          0 3 -2 2 -3 0 rrcurveto
          endchar
        </CharString>
        <CharString name="parenright">
          722 52 1700 rmoveto
          0 0 -7 0 0 0 rrcurveto
          -3 0 -2 -2 0 -3 rrcurveto
          0 0 0 -155 0 0 rrcurveto
          0 -3 2 -2 3 0 rrcurveto
          0 0 7 0 0 0 rrcurveto
          157 0 113 -60 86 -123 rrcurveto
          73 -105 22 -128 3 -296 rrcurveto
          0 0 0 -187 0 0 rrcurveto
          -3 -296 -22 -127 -73 -105 rrcurveto
          -86 -123 -113 -60 -157 0 rrcurveto
          0 0 -7 0 0 0 rrcurveto
          -3 0 -2 -2 0 -3 rrcurveto
          0 0 0 -155 0 0 rrcurveto
          0 -3 2 -2 3 0 rrcurveto
          0 0 7 0 0 0 rrcurveto
          214 0 165 70 118 170 rrcurveto
          35 50 73 94 14 205 rrcurveto
          13 190 3 382 -16 190 rrcurveto
          -17 205 -70 94 -35 50 rrcurveto
          -118 170 -165 70 -214 0 rrcurveto
          endchar
        </CharString>
        <CharString name="percent">
          866 826 1490 rmoveto
          0 0 -140 0 0 0 rrcurveto
          0 0 -645 -1460 0 0 rrcurveto
          0 0 -1 -30 0 0 rrcurveto
          0 0 152 0 0 0 rrcurveto
          0 0 634 1460 0 0 rrcurveto
          0 0 0 30 0 0 rrcurveto
          -731 -323 rmoveto
          0 0 0 0 0 0 rrcurveto
          31 -22 41 -12 49 0 rrcurveto
          49 0 42 12 31 22 rrcurveto
          36 26 19 40 0 48 rrcurveto
          0 98 -80 81 -97 0 rrcurveto
          -97 0 -79 -81 0 -98 rrcurveto
          0 -48 19 -40 36 -26 rrcurveto
          121 197 rmoveto
          38 0 31 -35 0 -42 rrcurveto
          0 -52 -48 -6 -21 0 rrcurveto
          -21 0 -47 6 0 52 rrcurveto
          0 42 30 35 38 0 rrcurveto
          258 -1216 rmoveto
          0 0 0 0 0 0 rrcurveto
          0 -48 19 -40 36 -26 rrcurveto
          31 -22 41 -12 49 0 rrcurveto
          49 0 41 12 31 22 rrcurveto
          36 26 19 40 0 48 rrcurveto
          0 98 -79 81 -97 0 rrcurveto
          -97 0 -79 -81 0 -98 rrcurveto
          244 6 rmoveto
          0 0 0 0 0 0 rrcurveto
          0 -52 -47 -6 -21 0 rrcurveto
          -21 0 -47 6 0 52 rrcurveto
          0 42 30 35 38 0 rrcurveto
          38 0 30 -35 0 -42 rrcurveto
          endchar
        </CharString>
        <CharString name="period">
          310 40 97 rmoveto
          0 -31 13 -26 23 -17 rrcurveto
          20 -15 27 -8 32 0 rrcurveto
          32 0 27 8 20 15 rrcurveto
          23 17 13 26 0 31 rrcurveto
          0 64 -52 52 -63 0 rrcurveto
          -63 0 -52 -52 0 -64 rrcurveto
          endchar
        </CharString>
        <CharString name="plus">
          580 40 480 rmoveto
          0 0 0 150 0 0 rrcurveto
          0 0 500 0 0 0 rrcurveto
          0 0 0 -150 0 0 rrcurveto
          0 0 -500 0 0 0 rrcurveto
          175 325 rmoveto
          0 0 150 0 0 0 rrcurveto
          0 0 0 -500 0 0 rrcurveto
          0 0 -150 0 0 0 rrcurveto
          0 0 0 500 0 0 rrcurveto
          endchar
        </CharString>
        <CharString name="q">
          1090 1050 1016 rmoveto
          0 0 0 0 0 0 rrcurveto
          0 3 -2 2 -3 0 rrcurveto
          0 0 -167 0 0 0 rrcurveto
          -45 0 -36 -36 0 -45 rrcurveto
          0 0 0 -30 0 0 rrcurveto
          -79 80 -108 51 -118 0 rrcurveto
          -247 0 -204 -190 -1 -262 rrcurveto
          0 0 0 -204 0 0 rrcurveto
          0 -225 152 -179 303 0 rrcurveto
          142 0 97 47 62 71 rrcurveto
          0 0 0 -446 0 0 rrcurveto
          0 -45 37 -37 45 0 rrcurveto
          0 0 166 0 0 0 rrcurveto
          3 0 2 2 0 3 rrcurveto
          0 0 0 154 0 0 rrcurveto
          0 3 -2 2 -3 0 rrcurveto
          0 0 -84 0 0 0 rrcurveto
          0 0 0 772 0 351 rrcurveto
          50 0 35 0 0 0 rrcurveto
          3 0 2 2 0 3 rrcurveto
          0 0 0 153 0 0 rrcurveto
          -258 -599 rmoveto
          0 -235 -189 -48 -108 0 rrcurveto
          -73 0 -217 22 0 241 rrcurveto
          0 0 0 180 0 0 rrcurveto
          0 190 130 130 157 0 rrcurveto
          157 0 143 -125 0 -177 rrcurveto
          0 -45 0 -128 0 -5 rrcurveto
          endchar
        </CharString>
        <CharString name="question">
          836 329 177 rmoveto
          -55 0 -45 -50 0 -62 rrcurveto
          0 -76 70 -9 30 0 rrcurveto
          30 0 70 9 0 76 rrcurveto
          0 62 -45 50 -55 0 rrcurveto
          2 1331 rmoveto
          0 0 0 0 0 0 rrcurveto
          -109 0 -101 -38 -79 -64 rrcurveto
          -2 -2 -1 -4 2 -2 rrcurveto
          0 0 101 -100 0 0 rrcurveto
          2 -2 3 0 2 2 rrcurveto
          50 45 63 26 69 0 rrcurveto
          163 0 133 -149 0 -183 rrcurveto
          0 -183 -137 -51 -99 -12 rrcurveto
          0 0 -87 0 -41 0 rrcurveto
          -11 0 -9 -10 0 -11 rrcurveto
          0 0 3 -73 0 0 rrcurveto
          0 0 0 0 0 0 rrcurveto
          0 0 0 -11 0 0 rrcurveto
          0 0 0 -2 0 -2 rrcurveto
          0 0 8 -400 0 0 rrcurveto
          0 -12 10 -10 12 0 rrcurveto
          0 0 105 0 0 0 rrcurveto
          12 0 11 10 0 12 rrcurveto
          0 0 6 370 0 0 rrcurveto
          95 10 82 30 64 47 rrcurveto
          95 70 50 103 0 127 rrcurveto
          0 259 -209 210 -256 0 rrcurveto
          endchar
        </CharString>
        <CharString name="quotedbl">
          370 40 1240 rmoveto
          0 0 -20 300 0 0 rrcurveto
          0 0 150 0 0 0 rrcurveto
          0 0 -20 -300 0 0 rrcurveto
          0 0 -110 0 0 0 rrcurveto
          180 0 rmoveto
          0 0 -20 300 0 0 rrcurveto
          0 0 150 0 0 0 rrcurveto
          0 0 -20 -300 0 0 rrcurveto
          0 0 -110 0 0 0 rrcurveto
          endchar
        </CharString>
        <CharString name="quotesingle">
          190 40 1240 rmoveto
          0 0 -20 300 0 0 rrcurveto
          0 0 150 0 0 0 rrcurveto
          0 0 -20 -300 0 0 rrcurveto
          0 0 -110 0 0 0 rrcurveto
          endchar
        </CharString>
        <CharString name="r">
          866 40 860 rmoveto
          0 -3 2 -2 3 0 rrcurveto
          0 0 85 0 0 0 rrcurveto
          0 0 0 -690 0 0 rrcurveto
          0 0 -61 0 0 0 rrcurveto
          -3 0 -2 -2 0 -3 rrcurveto
          0 0 0 -155 0 0 rrcurveto
          0 -3 2 -2 3 0 rrcurveto
          0 0 311 0 0 0 rrcurveto
          3 0 2 2 0 3 rrcurveto
          0 0 0 155 0 0 rrcurveto
          0 3 -2 2 -3 0 rrcurveto
          0 0 -85 0 0 0 rrcurveto
          0 0 0 533 0 0 rrcurveto
          45 116 124 50 132 0 rrcurveto
          17 0 62 0 62 -20 rrcurveto
          14 -4 5 -2 8 14 rrcurveto
          0 0 59 127 0 0 rrcurveto
          6 12 -2 6 -8 4 rrcurveto
          0 0 -5 1 0 0 rrcurveto
          0 0 0 0 0 0 rrcurveto
          -62 24 -73 14 -83 0 rrcurveto
          -141 0 -96 -49 -64 -69 rrcurveto
          0 0 0 16 0 0 rrcurveto
          0 46 -36 36 -46 0 rrcurveto
          0 0 -168 0 0 0 rrcurveto
          -3 0 -2 -2 0 -3 rrcurveto
          0 0 0 -155 0 0 rrcurveto
          endchar
        </CharString>
        <CharString name="s">
          925 307 390 rmoveto
          0 0 0 0 0 0 rrcurveto
          198 0 95 26 112 0 rrcurveto
          30 0 -7 -14 0 -21 rrcurveto
          0 -193 -104 -45 -257 0 rrcurveto
          -52 0 -186 9 -39 7 rrcurveto
          -6 1 -6 -3 -2 -6 rrcurveto
          0 0 -38 -139 0 0 rrcurveto
          -2 -7 4 -7 7 -1 rrcurveto
          64 -14 196 -3 60 0 rrcurveto
          440 0 71 211 0 215 rrcurveto
          0 76 -9 105 -146 0 rrcurveto
          -124 0 -92 -40 -163 0 rrcurveto
          -133 0 -19 36 0 62 rrcurveto
          0 50 -13 184 374 0 rrcurveto
          116 0 96 -45 35 -8 rrcurveto
          13 -3 8 2 4 17 rrcurveto
          0 0 0 0 0 0 rrcurveto
          0 0 0 0 0 0 rrcurveto
          0 0 33 123 0 0 rrcurveto
          3 14 -2 6 -17 7 rrcurveto
          -33 13 -132 35 -124 0 rrcurveto
          -505 0 -15 -374 0 -54 rrcurveto
          0 -102 59 -120 208 0 rrcurveto
          endchar
        </CharString>
        <CharString name="semicolon">
          310 40 97 rmoveto
          0 -31 13 -26 23 -17 rrcurveto
          20 -15 27 -8 32 0 rrcurveto
          32 0 27 8 20 15 rrcurveto
          23 17 13 26 0 31 rrcurveto
          0 64 -52 52 -63 0 rrcurveto
          -63 0 -52 -52 0 -64 rrcurveto
          106 -97 rmoveto
          0 -58 -85 -62 0 0 rrcurveto
          0 0 46 -62 0 0 rrcurveto
          0 0 163 88 0 196 rrcurveto
          -42 16 -20 25 0 0 rrcurveto
          0 0 -88 -49 0 0 rrcurveto
          0 0 26 -36 0 -58 rrcurveto
          -106 697 rmoveto
          0 -31 13 -26 23 -17 rrcurveto
          20 -15 27 -8 32 0 rrcurveto
          32 0 27 8 20 15 rrcurveto
          23 17 13 26 0 31 rrcurveto
          0 64 -52 52 -63 0 rrcurveto
          -63 0 -52 -52 0 -64 rrcurveto
          endchar
        </CharString>
        <CharString name="seven">
          972 819 1490 rmoveto
          0 0 0 0 0 0 rrcurveto
          0 0 0 0 0 0 rrcurveto
          0 0 -774 0 0 0 rrcurveto
          -3 0 -2 -2 0 -3 rrcurveto
          0 0 0 -150 0 0 rrcurveto
          0 -3 2 -2 3 0 rrcurveto
          0 0 656 0 0 0 rrcurveto
          0 0 -217 -490 0 0 rrcurveto
          0 0 -278 0 0 0 rrcurveto
          -3 0 -2 -2 0 -3 rrcurveto
          0 0 0 -155 0 0 rrcurveto
          0 -3 2 -2 3 0 rrcurveto
          0 0 205 0 0 0 rrcurveto
          0 0 -285 -645 0 0 rrcurveto
          0 0 -1 -30 0 0 rrcurveto
          0 0 172 0 0 0 rrcurveto
          0 0 635 1460 0 0 rrcurveto
          0 0 -1 30 0 0 rrcurveto
          0 0 -112 0 0 0 rrcurveto
          endchar
        </CharString>
        <CharString name="six">
          1047 542 840 rmoveto
          0 0 0 0 0 0 rrcurveto
          -126 0 -114 -51 -84 -83 rrcurveto
          16 232 47 106 66 94 rrcurveto
          86 123 78 70 253 0 rrcurveto
          0 0 0 0 0 0 rrcurveto
          0 0 1 0 0 0 rrcurveto
          0 0 105 0 0 0 rrcurveto
          3 0 3 2 0 3 rrcurveto
          0 0 0 155 0 0 rrcurveto
          0 3 -3 2 -3 0 rrcurveto
          0 0 -106 0 0 0 rrcurveto
          -255 0 -175 -90 -118 -170 rrcurveto
          -52 -75 -124 -208 0 -430 rrcurveto
          0 -162 28 -100 58 -83 rrcurveto
          23 -40 31 -36 39 -29 rrcurveto
          10 -9 9 -6 6 -2 rrcurveto
          79 -50 101 -26 118 0 rrcurveto
          128 0 111 32 81 59 rrcurveto
          95 70 50 103 0 127 rrcurveto
          0 259 -209 210 -256 0 rrcurveto
          0 -721 rmoveto
          -89 0 -206 25 0 225 rrcurveto
          0 183 132 149 163 0 rrcurveto
          163 0 133 -149 0 -183 rrcurveto
          0 -225 -207 -25 -89 0 rrcurveto
          endchar
        </CharString>
        <CharString name="slash">
          657 617 1460 rmoveto
          0 0 0 30 0 0 rrcurveto
          0 0 -172 0 0 0 rrcurveto
          0 0 -405 -1460 0 0 rrcurveto
          0 0 0 -30 0 0 rrcurveto
          0 0 161 0 0 0 rrcurveto
          0 0 416 1460 0 0 rrcurveto
          endchar
        </CharString>
        <CharString name="space">
          400 endchar
        </CharString>
        <CharString name="t">
          546 318 855 rmoveto
          0 0 183 0 0 0 rrcurveto
          3 0 2 2 0 3 rrcurveto
          0 0 0 155 0 0 rrcurveto
          0 3 -2 2 -3 0 rrcurveto
          0 0 -183 0 0 0 rrcurveto
          0 0 0 362 0 0 rrcurveto
          0 5 -3 3 -5 0 rrcurveto
          0 0 -148 0 0 0 rrcurveto
          -5 0 -4 -3 0 -5 rrcurveto
          0 0 0 -362 0 0 rrcurveto
          0 0 -108 0 0 0 rrcurveto
          -3 0 -2 -2 0 -3 rrcurveto
          0 0 0 -155 0 0 rrcurveto
          0 -3 2 -2 3 0 rrcurveto
          0 0 58 0 50 0 rrcurveto
          0 0 0 -764 0 0 rrcurveto
          0 -50 41 -41 50 0 rrcurveto
          0 0 202 0 0 0 rrcurveto
          3 0 2 2 0 3 rrcurveto
          0 0 0 155 0 0 rrcurveto
          0 3 -2 2 -3 0 rrcurveto
          0 0 -119 0 0 0 rrcurveto
          -5 0 -4 4 0 5 rrcurveto
          0 0 0 681 0 0 rrcurveto
          endchar
        </CharString>
        <CharString name="three">
          1003 817 775 rmoveto
          0 0 0 0 0 0 rrcurveto
          102 82 22 135 0 151 rrcurveto
          0 123 -48 100 -92 67 rrcurveto
          -78 57 -105 30 -124 0 rrcurveto
          -124 0 -194 -20 -126 -206 rrcurveto
          0 0 130 -71 0 0 rrcurveto
          71 124 101 29 142 0 rrcurveto
          86 0 207 -14 0 -217 rrcurveto
          0 -170 5 -121 -254 -10 rrcurveto
          0 0 -55 0 0 0 rrcurveto
          -26 0 -21 -21 0 -26 rrcurveto
          0 0 0 -60 0 0 rrcurveto
          0 -26 21 -21 26 0 rrcurveto
          0 0 16 0 0 0 rrcurveto
          300 0 15 -128 0 -183 rrcurveto
          0 -225 -236 -15 -89 0 rrcurveto
          -148 0 -82 76 -64 93 rrcurveto
          0 0 -145 -73 0 0 rrcurveto
          24 -62 40 -51 55 -41 rrcurveto
          81 -59 111 -32 128 0 rrcurveto
          128 0 130 32 81 59 rrcurveto
          95 70 50 103 0 127 rrcurveto
          0 170 -27 145 -129 79 rrcurveto
          endchar
        </CharString>
        <CharString name="two">
          895 741 791 rmoveto
          0 0 0 0 0 0 rrcurveto
          107 107 7 82 0 94 rrcurveto
          0 241 -194 195 -248 0 rrcurveto
          -148 0 -131 -76 -78 -115 rrcurveto
          0 0 123 -95 0 0 rrcurveto
          48 88 87 59 99 0 rrcurveto
          151 0 123 -128 0 -171 rrcurveto
          0 -68 -3 -55 -74 -74 rrcurveto
          -180 -180 -390 -184 0 -350 rrcurveto
          0 0 0 -1 0 0 rrcurveto
          0 0 0 0 0 0 rrcurveto
          0 0 0 -155 0 0 rrcurveto
          0 -3 2 -2 3 0 rrcurveto
          0 0 780 0 0 0 rrcurveto
          3 0 2 2 0 3 rrcurveto
          0 0 0 155 0 0 rrcurveto
          0 3 -2 2 -3 0 rrcurveto
          0 0 -598 0 0 0 rrcurveto
          -72 232 420 228 166 166 rrcurveto
          endchar
        </CharString>
        <CharString name="u">
          1022 40 366 rmoveto
          0 0 0 0 0 0 rrcurveto
          7 -217 145 -169 295 0 rrcurveto
          107 0 80 27 61 43 rrcurveto
          13 -29 29 -21 34 0 rrcurveto
          0 0 166 0 0 0 rrcurveto
          3 0 2 2 0 3 rrcurveto
          0 0 0 155 0 0 rrcurveto
          0 3 -2 2 -3 0 rrcurveto
          0 0 -84 0 0 0 rrcurveto
          0 0 -1 690 0 0 rrcurveto
          0 0 85 0 0 0 rrcurveto
          3 0 2 2 0 3 rrcurveto
          0 0 0 154 0 0 rrcurveto
          0 3 -2 2 -3 0 rrcurveto
          0 0 -167 0 0 0 rrcurveto
          -45 0 -36 -37 0 -45 rrcurveto
          0 0 0 -708 0 0 rrcurveto
          -71 -84 -117 -20 -54 0 rrcurveto
          -38 0 -243 18 0 241 rrcurveto
          0 0 -1 471 0 0 rrcurveto
          0 0 85 0 0 0 rrcurveto
          3 0 2 2 0 3 rrcurveto
          0 0 0 155 0 0 rrcurveto
          0 3 -2 2 -3 0 rrcurveto
          0 0 -168 0 0 0 rrcurveto
          -46 0 -36 -37 0 -46 rrcurveto
          0 0 0 -571 0 0 rrcurveto
          endchar
        </CharString>
        <CharString name="underscore">
          640 20 -170 rmoveto
          0 0 0 150 0 0 rrcurveto
          0 0 600 0 0 0 rrcurveto
          0 0 0 -150 0 0 rrcurveto
          0 0 -600 0 0 0 rrcurveto
          endchar
        </CharString>
        <CharString name="v">
          1089 1049 1015 rmoveto
          0 3 -2 2 -3 0 rrcurveto
          0 0 -138 0 0 0 rrcurveto
          -33 0 -29 -20 -13 -28 rrcurveto
          0 0 0 0 0 0 rrcurveto
          0 0 -260 -680 0 0 rrcurveto
          0 0 -347 728 0 0 rrcurveto
          0 0 -184 0 0 0 rrcurveto
          0 0 481 -1020 0 0 rrcurveto
          0 0 111 0 0 0 rrcurveto
          0 0 321 855 0 0 rrcurveto
          0 0 91 0 0 0 rrcurveto
          3 0 2 2 0 3 rrcurveto
          0 0 0 155 0 0 rrcurveto
          endchar
        </CharString>
        <CharString name="w">
          1374 1334 1015 rmoveto
          0 3 -2 2 -3 0 rrcurveto
          0 0 -138 0 0 0 rrcurveto
          -33 0 -29 -20 -13 -28 rrcurveto
          0 0 0 0 0 0 rrcurveto
          0 0 -1 -2 0 0 rrcurveto
          -3 -8 -2 -7 -1 -9 rrcurveto
          0 0 -165 -634 0 0 rrcurveto
          0 0 -218 508 0 0 rrcurveto
          0 0 -46 0 0 0 rrcurveto
          0 0 -229 -486 0 0 rrcurveto
          0 0 -237 686 0 0 rrcurveto
          0 0 -174 0 0 0 rrcurveto
          0 0 351 -1020 0 0 rrcurveto
          0 0 111 0 0 0 rrcurveto
          0 0 198 458 0 0 rrcurveto
          0 0 226 -458 0 0 rrcurveto
          0 0 111 0 0 0 rrcurveto
          0 0 208 855 0 0 rrcurveto
          0 0 84 0 0 0 rrcurveto
          3 0 2 2 0 3 rrcurveto
          0 0 0 155 0 0 rrcurveto
          endchar
        </CharString>
        <CharString name="x">
          977 45 0 rmoveto
          0 0 0 0 0 0 rrcurveto
          0 0 138 0 0 0 rrcurveto
          34 0 29 21 13 29 rrcurveto
          0 0 226 337 0 0 rrcurveto
          0 0 226 -344 0 0 rrcurveto
          0 0 1 0 0 0 rrcurveto
          14 -26 27 -17 31 0 rrcurveto
          0 0 138 0 0 0 rrcurveto
          3 0 2 2 0 3 rrcurveto
          0 0 0 155 0 0 rrcurveto
          0 3 -2 2 -3 0 rrcurveto
          0 0 -99 0 0 0 rrcurveto
          0 0 -233 351 0 0 rrcurveto
          0 0 235 339 0 0 rrcurveto
          0 0 107 0 0 0 rrcurveto
          3 0 2 2 0 3 rrcurveto
          0 0 0 154 0 0 rrcurveto
          0 3 -2 2 -3 0 rrcurveto
          0 0 -138 0 0 0 rrcurveto
          -33 0 -29 -19 -13 -28 rrcurveto
          0 0 0 0 0 0 rrcurveto
          0 0 -224 -313 0 0 rrcurveto
          0 0 -207 313 0 0 rrcurveto
          0 0 0 0 0 0 rrcurveto
          -13 28 -29 19 -33 0 rrcurveto
          0 0 -138 0 0 0 rrcurveto
          -3 0 -2 -2 0 -3 rrcurveto
          0 0 0 -154 0 0 rrcurveto
          0 -3 2 -2 3 0 rrcurveto
          0 0 103 0 0 0 rrcurveto
          0 0 213 -324 0 0 rrcurveto
          0 0 -251 -366 0 0 rrcurveto
          0 0 -95 0 0 0 rrcurveto
          -3 0 -2 -2 0 -3 rrcurveto
          0 0 0 -155 0 0 rrcurveto
          0 -3 2 -2 3 0 rrcurveto
          endchar
        </CharString>
        <CharString name="y">
          1067 855 -51 rmoveto
          0 -176 -92 -52 -289 0 rrcurveto
          -54 0 -99 6 -44 6 rrcurveto
          -13 2 -8 -1 -4 -17 rrcurveto
          0 0 0 0 0 0 rrcurveto
          0 0 0 0 0 0 rrcurveto
          0 0 -34 -123 0 0 rrcurveto
          -3 -14 2 -9 18 -4 rrcurveto
          67 -15 149 -2 27 0 rrcurveto
          491 0 52 238 6 155 rrcurveto
          0 0 0 0 0 0 rrcurveto
          0 0 0 995 0 0 rrcurveto
          0 46 -36 36 -46 0 rrcurveto
          0 0 -158 0 0 0 rrcurveto
          -3 0 -2 -2 0 -3 rrcurveto
          0 0 0 -155 0 0 rrcurveto
          0 -3 2 -2 3 0 rrcurveto
          0 0 75 0 0 0 rrcurveto
          0 0 0 -578 0 0 rrcurveto
          -50 -102 -134 -36 -100 0 rrcurveto
          -38 0 -255 12 0 235 rrcurveto
          0 0 0 552 0 0 rrcurveto
          0 46 -36 36 -46 0 rrcurveto
          0 0 -158 0 0 0 rrcurveto
          -3 0 -2 -2 0 -3 rrcurveto
          0 0 0 -155 0 0 rrcurveto
          0 -3 2 -2 3 0 rrcurveto
          0 0 85 0 0 0 rrcurveto
          0 0 0 -469 0 0 rrcurveto
          0 -217 135 -187 313 0 rrcurveto
          115 0 92 25 70 44 rrcurveto
          0 -47 0 -46 0 -9 rrcurveto
          endchar
        </CharString>
        <CharString name="z">
          971 931 236 rmoveto
          0 3 -2 2 -3 0 rrcurveto
          0 0 -154 0 0 0 rrcurveto
          -3 0 -2 -2 0 -3 rrcurveto
          0 0 0 -82 0 0 rrcurveto
          0 0 -436 0 0 0 rrcurveto
          0 0 599 826 0 0 rrcurveto
          0 0 0 0 0 0 rrcurveto
          0 0 0 40 0 0 rrcurveto
          0 0 -788 0 0 0 rrcurveto
          -45 0 -37 -37 0 -45 rrcurveto
          0 0 0 -159 0 0 rrcurveto
          0 -3 2 -2 3 0 rrcurveto
          0 0 154 0 0 0 rrcurveto
          3 0 2 2 0 3 rrcurveto
          0 0 0 88 0 0 rrcurveto
          0 0 439 0 0 0 rrcurveto
          0 0 -623 -827 0 0 rrcurveto
          0 0 0 -40 0 0 rrcurveto
          0 0 809 0 0 0 rrcurveto
          45 0 37 37 0 45 rrcurveto
          0 0 0 154 0 0 rrcurveto
          endchar
        </CharString>
        <CharString name="zero">
          1160 580 1530 rmoveto
          0 0 0 0 0 0 rrcurveto
          -533 0 -7 -556 0 -270 rrcurveto
          0 -486 158 -218 382 0 rrcurveto
          369 0 171 184 0 520 rrcurveto
          0 295 -3 531 -537 0 rrcurveto
          0 -1375 rmoveto
          0 0 0 0 0 0 rrcurveto
          -331 0 -35 286 0 260 rrcurveto
          0 326 35 348 331 0 rrcurveto
          350 0 15 -348 0 -326 rrcurveto
          0 -256 -9 -290 -356 0 rrcurveto
          endchar
        </CharString>
</ttFont>
